<svg width="312" height="244" viewBox="0 0 312 244" fill="none" xmlns="http://www.w3.org/2000/svg">
<path d="M212.71 110.9C207.63 106.76 201.47 104.24 195.79 100.98C185.62 95.13 176.92 86.76 170.68 76.82C166.92 70.84 164.04 64.29 159.73 58.69C152.78 49.66 140.43 42.28 128.43 41.97L130.52 45.8L129.39 49.06L127.88 50.03L131.93 59.89L127.53 63.85H120.57L117.58 62.79L116.43 53.98L114.23 49.05H111.4L110.79 48.04C107.54 50.78 104.83 54.25 102.75 58.01C102.43 58.58 102.13 59.16 101.84 59.74C98.72 66.05 96.92 73.06 95.65 79.96C94.48 86.33 96.89 93.96 98.17 100.27C99.96 109.09 101.81 118.09 106.35 125.87C111.05 133.92 118.34 140.15 123.47 147.93C129.83 157.58 132.68 169.32 139.65 178.54C145.45 186.2 155.78 191.53 152.34 189.57L156.3 186.56L161.37 184.9L168.8 177.39L168.63 177.23L190.4 159.05L204.4 164.05L176.89 185.37L174.58 183.09L176.48 185.63L170.03 191.43L168.9 192.54L170.33 195.11C169.55 195.05 168.77 194.97 168 194.86C169.5 195.06 171 195.19 172.52 195.23C185.23 195.54 197.91 189.99 206.5 180.63L209.18 177.43L206.91 166.54L205.37 163.67L190.13 158.06L202.94 138.16L222.21 150.61C223.53 146.6 224.57 142.5 224.81 138.29C225.38 127.96 220.75 117.44 212.71 110.9Z" fill="url(#paint0_linear)"/>
<path d="M106.59 40.8401C106.66 38.7801 107.76 36.8401 109.29 35.4601C110.82 34.0801 112.75 33.2001 114.72 32.6201C116.04 32.2301 117.45 31.9301 118.46 31.0001C119.47 30.0701 119.9 28.6901 120.25 27.3601C120.36 26.9501 120.47 26.5301 120.41 26.1101C120.35 25.7001 120.14 25.3301 119.91 24.9901C118.16 22.4301 114.94 20.9501 111.86 21.2801C108.77 21.6101 105.95 23.7401 104.77 26.6101C103.9 28.7401 103.61 31.5601 101.47 32.4301C93.24 35.0901 90.48 46.5601 98.44 51.6601C99.6 52.4001 100.93 52.8201 102.25 53.2201C106.53 54.5401 110.81 55.8601 115.11 57.1401C115.65 57.3001 116.38 57.4001 116.67 56.9101C116.83 56.6501 116.78 56.3101 116.72 56.0101C116.21 53.2001 115.23 50.9001 114.06 48.3001C113.82 49.2601 112.52 49.6101 111.62 49.2001C110.72 48.7901 110.16 47.8901 109.72 47.0001C109.4 46.3601 109.11 45.6501 109.3 44.9601C109.49 44.2801 110.38 43.7701 110.94 44.2201C109.67 42.5101 108.74 40.5601 108.2 38.5001" fill="#AD8866"/>
<path d="M156.57 78.93L170.85 82.63L164 62.38C157.27 60.12 150.53 59.28 143.56 57.82C142.25 57.54 139.52 57.29 137.28 57.12C135.16 56.96 133.09 57.88 131.82 59.58C131.05 60.61 130.18 61.7 129.48 62.38C127.72 64.08 125.19 65.08 122.78 64.66C120.73 64.3 115.05 61.71 115.05 61.71C115.05 61.71 103.34 65.77 99.14 68.03C95.84 69.8 92.1 72.68 88.87 74.59L100.33 88.35L109.36 83.24C116.35 98.8 129.12 116.06 135.87 130.77C149.71 122.33 162.59 115.01 178.29 109.93C179.58 109.13 161.92 88.33 155.42 80.76C154.71 79.92 155.5 78.66 156.57 78.93Z" fill="url(#paint1_linear)"/>
<path d="M170.15 144.32C167.64 145.71 164.1 143.56 163.2 140.07C162.27 136.45 161.66 132.61 163.01 131.81C164.36 131.01 167.33 133.35 170.01 135.94C172.68 138.52 172.76 142.87 170.15 144.32Z" stroke="#1F252E" stroke-width="2" stroke-miterlimit="10" stroke-linecap="round" stroke-linejoin="round"/>
<path d="M205.4 164.06C197.78 169.5 186.62 178.21 179 183.64C175.53 186.12 165.98 196.77 162.49 189.81C160.69 186.21 161.56 184.25 164.14 181.67C172.22 173.61 180.77 166.09 189.74 159.17" stroke="#1F252E" stroke-width="2" stroke-miterlimit="10" stroke-linecap="round" stroke-linejoin="round"/>
<path d="M189.76 158.28C191.8 158.99 192.38 159.49 194.42 160.2C197.41 161.24 204.08 162.18 206.08 164.71C207.03 165.91 208.02 170.28 208.81 174.67C210.17 182.2 212.33 189.56 215.35 196.59C218.37 203.62 221.88 211.79 223.17 214.73C224.87 218.62 226.48 223.27 231.04 224.77C236.14 223.32 237.35 221.49 236.57 217.52L226.5 165.66C225.95 161.69 225.4 157.72 224.85 153.74C224.76 153.08 224.66 152.39 224.27 151.84C223.96 151.4 223.5 151.09 223.05 150.79C216.71 146.61 210.31 142.57 203.8 138.71" stroke="#1F252E" stroke-width="2" stroke-miterlimit="10" stroke-linecap="round" stroke-linejoin="round"/>
<path d="M190.4 129.06C186.75 122.8 181.26 114.98 177.61 108.72" stroke="#1F252E" stroke-width="2" stroke-miterlimit="10" stroke-linecap="round" stroke-linejoin="round"/>
<path d="M177.17 124.27C186.29 128.73 195.14 131.27 203.81 136.42L188.3 160.36C180.7 157.71 173.11 155.06 165.51 152.41C161.3 150.94 157.08 149.47 153.17 147.33C146.71 143.8 141.23 136.19 137.52 129.83" stroke="#1F252E" stroke-width="2" stroke-miterlimit="10" stroke-linecap="round" stroke-linejoin="round"/>
<path d="M176.22 109.83C165.05 119.38 153.1 128.02 140.52 135.63" stroke="#1F252E" stroke-width="2" stroke-miterlimit="10" stroke-linecap="round" stroke-linejoin="round"/>
<path d="M181.09 108.48C191.55 111.31 203.03 108.94 212.29 103.31C221.55 97.68 228.69 88.99 233.73 79.4C236.11 74.87 238.07 70.09 239.14 65.08C241.2 55.38 239.76 44.97 235.13 36.2" stroke="#1F252E" stroke-width="2" stroke-miterlimit="10" stroke-linecap="round" stroke-linejoin="round"/>
<path d="M220.02 17.21C215.24 15.76 209.8 15.28 205.48 17.78C201.16 20.28 198.9 26.6 202.01 30.5C203.2 31.99 204.95 32.93 206.74 33.59C214.92 36.63 224.57 34.47 231.28 28.9C238 23.33 241.83 14.7 242.4 6" stroke="#1F252E" stroke-width="2" stroke-miterlimit="10" stroke-linecap="round" stroke-linejoin="round"/>
<path d="M225.39 143.38C227.43 141.18 229.35 138.87 231.16 136.48C229.54 136.21 227.91 135.93 226.29 135.66C225.93 135.6 225.52 135.5 225.38 135.16C225.27 134.91 225.37 134.62 225.47 134.37C226.82 130.91 228.8 127.7 231.28 124.93C230.12 124.15 228.78 123.66 227.39 123.51" stroke="#FC3C22" stroke-width="2" stroke-miterlimit="10" stroke-linecap="round" stroke-linejoin="round"/>
<path d="M232.04 149.19C234.66 148.53 237.29 147.87 239.91 147.21C241.03 146.93 242.42 146.3 242.32 145.15C242.21 143.86 240.18 142.98 240.75 141.81C240.93 141.43 241.35 141.23 241.73 141.05C243.74 140.11 245.7 139.06 247.6 137.9C247.95 137.69 248.3 137.46 248.52 137.12C248.92 136.5 248.73 135.64 248.28 135.05C247.83 134.46 247.16 134.09 246.52 133.73" stroke="#FC3C22" stroke-width="2" stroke-miterlimit="10" stroke-linecap="round" stroke-linejoin="round"/>
<path d="M74.53 71.27C73.16 69.44 71.79 67.61 70.42 65.78C70.3 65.62 70.17 65.46 69.99 65.4C69.58 65.27 69.24 65.71 69.02 66.09C68.37 67.22 67.63 68.3 66.8 69.31C66.62 69.53 66.41 69.76 66.13 69.81C65.85 69.86 65.58 69.72 65.34 69.59C62.91 68.28 60.48 66.97 58.05 65.65C57.11 67.03 56.33 68.53 55.73 70.09" stroke="#FC3C22" stroke-width="2" stroke-miterlimit="10" stroke-linecap="round" stroke-linejoin="round"/>
<path d="M71.67 78.0901C70.15 77.6301 68.63 77.1701 67.11 76.7201C66.56 76.5501 65.91 76.4001 65.43 76.7201C65.1 76.9401 64.94 77.3301 64.79 77.7001C64.21 79.1701 63.63 80.6401 63.04 82.1201C62.92 82.4401 62.77 82.7701 62.49 82.9601C62.15 83.1801 61.71 83.1201 61.32 83.0501C59.63 82.7601 57.95 82.4701 56.26 82.1801C55.87 82.1101 55.43 82.0501 55.1 82.2801C54.81 82.4801 54.69 82.8501 54.6 83.1901C54.07 85.0901 53.54 86.9901 53 88.9001" stroke="#FC3C22" stroke-width="2" stroke-miterlimit="10" stroke-linecap="round" stroke-linejoin="round"/>
<path d="M198.25 120.46C197.36 123.81 192.93 125.2 189.54 123.17C186.03 121.06 182.6 118.48 183.03 116.64C183.47 114.8 187.59 114.06 191.67 113.79C195.76 113.52 199.18 116.97 198.25 120.46Z" stroke="#1F252E" stroke-width="2" stroke-miterlimit="10" stroke-linecap="round" stroke-linejoin="round"/>
<path d="M192.91 54.11C190.33 51.37 188.67 47.32 190 43.79C190.24 43.16 190.8 42.46 191.43 42.68C191.74 42.79 191.94 43.1 192.08 43.4C192.35 43.98 192.51 44.61 192.55 45.24C192.58 45.75 192.55 46.31 192.85 46.72C193.15 47.13 193.97 47.14 194.05 46.64" stroke="#1F252E" stroke-width="2" stroke-miterlimit="10" stroke-linecap="round" stroke-linejoin="round"/>
<path d="M79.59 70.5398C79.19 66.5098 78.78 62.4698 78.38 58.4398C77.31 58.6998 76.24 58.9498 75.17 59.2098C74.91 59.2698 74.62 59.3398 74.37 59.2398C74.1 59.1298 73.94 58.8798 73.8 58.6298C73.25 57.6698 72.81 56.6498 72.48 55.5898" stroke="#FC3C22" stroke-width="2" stroke-miterlimit="10" stroke-linecap="round" stroke-linejoin="round"/>
<path d="M232.47 156.25C235.3 158.33 238.35 160.09 241.56 161.49C241.9 159.53 242.25 157.57 242.59 155.62C245.04 156 247.39 157.03 249.33 158.57" stroke="#FC3C22" stroke-width="2" stroke-miterlimit="10" stroke-linecap="round" stroke-linejoin="round"/>
<path d="M133.476 143.72C137.912 140.59 141.036 137.384 140.454 136.558C139.871 135.732 135.802 137.6 131.366 140.729C126.93 143.859 123.807 147.066 124.389 147.892C124.972 148.718 129.04 146.85 133.476 143.72Z" fill="#1F252E" stroke="#1F252E" stroke-width="2" stroke-miterlimit="10" stroke-linecap="round" stroke-linejoin="round"/>
<path d="M124.22 147.72C127.04 151.54 129.86 155.37 132.67 159.19C132.67 159.19 136.1 164.42 147.65 154.99C148.52 153.97 149.23 152.76 149.89 151.6C151.8 148.22 143.96 140.33 142 137.53" stroke="#1F252E" stroke-width="2" stroke-miterlimit="10" stroke-linecap="round" stroke-linejoin="round"/>
<path d="M168.87 127.9C162.94 133.08 156.66 137.86 150.09 142.19" stroke="#1F252E" stroke-width="2" stroke-miterlimit="10" stroke-linecap="round" stroke-linejoin="round"/>
<path d="M181.52 115.66C180.35 116.92 179.15 118.15 177.94 119.38" stroke="#1F252E" stroke-width="2" stroke-miterlimit="10" stroke-linecap="round" stroke-linejoin="round"/>
<path d="M152.61 128.65C154.04 130.94 155.47 133.22 156.9 135.51" stroke="#1F252E" stroke-width="2" stroke-miterlimit="10" stroke-linecap="round" stroke-linejoin="round"/>
<path d="M158.42 125.55C159.74 127.43 161.07 129.32 162.39 131.2" stroke="#1F252E" stroke-width="2" stroke-miterlimit="10" stroke-linecap="round" stroke-linejoin="round"/>
<path d="M161.65 184.62C157.92 185.21 147.9 189.86 151.7 193.9C157.44 200 164.78 208.57 173.28 211.47C173.54 211.56 173.82 211.64 174.08 211.56C174.34 211.49 174.53 211.29 174.69 211.09C177.12 207.88 174.63 201.08 172.63 198.24C171.94 197.27 171.08 196.39 170.54 195.35C169.86 194.04 169.73 192.5 170.18 191.1" stroke="#1F252E" stroke-width="2" stroke-miterlimit="10" stroke-linecap="round" stroke-linejoin="round"/>
<path d="M156.57 78.93L170.85 82.63L163.85 62.35C157.12 60.09 150.53 59.28 143.56 57.82C142.25 57.54 139.52 57.29 137.28 57.12C135.16 56.96 133.09 57.88 131.82 59.58C131.05 60.61 130.18 61.7 129.48 62.38C127.72 64.08 125.19 65.08 122.78 64.66C120.73 64.3 115.05 61.71 115.05 61.71C115.05 61.71 103.34 65.77 99.14 68.03C95.84 69.8 92.1 72.68 88.87 74.59L100.33 88.35L109.36 83.24C116.35 98.8 129.12 116.06 135.87 130.77C149.71 122.33 162.59 115.01 178.29 109.93C179.58 109.13 161.92 88.33 155.42 80.76C154.71 79.92 155.5 78.66 156.57 78.93Z" stroke="#1F252E" stroke-width="2" stroke-miterlimit="10" stroke-linecap="round" stroke-linejoin="round"/>
<path d="M131.71 59.4398C130.31 56.8098 129.07 54.0998 128.01 51.3198" stroke="#1F252E" stroke-width="2" stroke-miterlimit="10" stroke-linecap="round" stroke-linejoin="round"/>
<path d="M123.65 50.7101C125.22 49.6001 127.63 50.4901 129.15 49.3201C130.28 48.4401 130.42 46.7801 130.25 45.3601C130.01 43.3201 127.39 40.0601 127.39 40.0601L127.92 37.4601C128.02 36.9801 127.77 36.5001 127.31 36.3101C126.26 35.8701 124.45 35.1301 123.88 34.9501C123.27 34.7601 122.77 34.3301 122.29 33.9101C121.12 32.8901 119.95 31.8701 118.78 30.8501" stroke="#1F252E" stroke-width="2" stroke-miterlimit="10" stroke-linecap="round" stroke-linejoin="round"/>
<path d="M106.59 40.8401C106.66 38.7801 107.76 36.8401 109.29 35.4601C110.82 34.0801 112.75 33.2001 114.72 32.6201C116.04 32.2301 117.45 31.9301 118.46 31.0001C119.47 30.0701 119.9 28.6901 120.25 27.3601C120.36 26.9501 120.47 26.5301 120.41 26.1101C120.35 25.7001 120.14 25.3301 119.91 24.9901C118.16 22.4301 114.94 20.9501 111.86 21.2801C108.77 21.6101 105.95 23.7401 104.77 26.6101C103.9 28.7401 103.61 31.5601 101.47 32.4301C93.24 35.0901 90.48 46.5601 98.44 51.6601C99.6 52.4001 100.93 52.8201 102.25 53.2201C106.53 54.5401 110.81 55.8601 115.11 57.1401C115.65 57.3001 116.38 57.4001 116.67 56.9101C116.83 56.6501 116.78 56.3101 116.72 56.0101C116.21 53.2001 115.23 50.9001 114.06 48.3001C113.82 49.2601 112.52 49.6101 111.62 49.2001C110.72 48.7901 110.16 47.8901 109.72 47.0001C109.4 46.3601 109.11 45.6501 109.3 44.9601C109.49 44.2801 110.38 43.7701 110.94 44.2201C109.67 42.5101 108.74 40.5601 108.2 38.5001" stroke="#1F252E" stroke-width="2" stroke-miterlimit="10" stroke-linecap="round" stroke-linejoin="round"/>
<path d="M117.53 63.12C117.53 59.68 116.71 55.58 115.82 53.29" stroke="#1F252E" stroke-width="2" stroke-miterlimit="10" stroke-linecap="round" stroke-linejoin="round"/>
<path d="M89.5699 76.48C88.2399 77.27 86.3799 78.27 84.7199 79.28C83.1499 80.23 81.8599 81.58 80.9599 83.18C78.3299 88.71 75.7099 94.25 73.0799 99.78C72.0199 102.02 70.9399 104.25 69.8399 106.47C68.9399 108.28 68.1199 110.54 66.4799 111.83C65.8499 112.33 65.1099 112.68 64.4899 113.19C63.8399 113.73 63.3399 114.43 62.8899 115.14C61.1399 117.94 60.0699 121.17 59.7899 124.46C59.7499 124.93 59.7399 125.44 60.0399 125.8C60.3399 126.16 61.0499 126.15 61.1699 125.7" stroke="#1F252E" stroke-width="2" stroke-miterlimit="10" stroke-linecap="round" stroke-linejoin="round"/>
<path d="M97.4399 84.3301C94.9099 85.8101 90.6099 88.9201 90.6099 88.9201C90.6099 88.9201 85.7599 96.0101 83.1399 99.8001C80.9699 102.96 77.6099 107.2 74.6899 110.88" stroke="#1F252E" stroke-width="2" stroke-miterlimit="10" stroke-linecap="round" stroke-linejoin="round"/>
<path d="M150.87 74.48C152.26 76.28 153.69 78.04 155.17 79.76" stroke="#1F252E" stroke-width="2" stroke-miterlimit="10" stroke-linecap="round" stroke-linejoin="round"/>
<path d="M130.65 66.0898C128.49 67.6198 125.73 68.2898 123.12 67.8998" stroke="#1F252E" stroke-width="2" stroke-miterlimit="10" stroke-linecap="round" stroke-linejoin="round"/>
<path d="M165.85 199C167.05 197.71 168.25 196.42 169.45 195.13" stroke="#1F252E" stroke-width="2" stroke-miterlimit="10" stroke-linecap="round" stroke-linejoin="round"/>
<path d="M169.09 178.23C171.29 180.35 173.5 182.47 175.7 184.58" stroke="#1F252E" stroke-width="2" stroke-miterlimit="10" stroke-linecap="round" stroke-linejoin="round"/>
<path d="M166.39 180.94C167.7 182.38 169 183.83 170.31 185.27" stroke="#1F252E" stroke-width="2" stroke-miterlimit="10" stroke-linecap="round" stroke-linejoin="round"/>
<path d="M232.77 205.53C230.28 206.11 227.94 207.32 226.03 209.01" stroke="#1F252E" stroke-width="2" stroke-miterlimit="10" stroke-linecap="round" stroke-linejoin="round"/>
<path d="M235.14 211.95C231.41 213.43 227.9 215.35 224.72 217.65" stroke="#1F252E" stroke-width="2" stroke-miterlimit="10" stroke-linecap="round" stroke-linejoin="round"/>
<path d="M225.96 222.42C222.56 227.1 224.02 233.74 226.82 238.71C237.97 235.43 246.14 229.12 256.03 222.73C257.27 221.93 258.69 220.69 258.32 219.24C258.14 218.53 257.56 218.03 257.01 217.59C254.89 215.89 252.33 214.21 249.7 214.88C248.1 215.29 246.81 216.51 245.38 217.39C242.88 218.93 239.83 219.42 237.04 218.74" stroke="#1F252E" stroke-width="2" stroke-miterlimit="10" stroke-linecap="round" stroke-linejoin="round"/>
<path d="M240.64 224.62C241.04 222.79 241.43 220.95 241.83 219.12" stroke="#1F252E" stroke-width="2" stroke-miterlimit="10" stroke-linecap="round" stroke-linejoin="round"/>
<path d="M251.4 215.09C249.94 217.76 250.04 221.2 251.63 223.78" stroke="#1F252E" stroke-width="2" stroke-miterlimit="10" stroke-linecap="round" stroke-linejoin="round"/>
<path d="M238.2 219.5C237.85 222.13 235.88 224.47 233.36 225.29C230.84 226.11 227.87 225.34 226.05 223.41" stroke="#1F252E" stroke-width="2" stroke-miterlimit="10" stroke-linecap="round" stroke-linejoin="round"/>
<path d="M174.55 201.71C171.31 202.38 168.63 205.2 168.13 208.47" stroke="#1F252E" stroke-width="2" stroke-miterlimit="10" stroke-linecap="round" stroke-linejoin="round"/>
<path d="M171.47 198.36C169.9 199.29 168.7 200.83 168.18 202.58" stroke="#1F252E" stroke-width="2" stroke-miterlimit="10" stroke-linecap="round" stroke-linejoin="round"/>
<path d="M143 139.87C138.85 145.49 133.02 149.57 126.71 151.28" stroke="#1F252E" stroke-width="2" stroke-miterlimit="10" stroke-linecap="round" stroke-linejoin="round"/>
<path d="M165.21 65.6902C169.46 66.9102 171.42 67.9602 175.67 69.1802C175.97 69.2702 176.29 69.3502 176.59 69.2702C176.85 69.2002 177.04 69.0102 177.22 68.8302C181.51 64.6102 187.16 59.1302 191.45 54.9102" stroke="#1F252E" stroke-width="2" stroke-miterlimit="10" stroke-linecap="round" stroke-linejoin="round"/>
<path d="M194.8 47.18C195.87 44.63 197.12 42.13 198.53 39.71C198.96 38.98 199.43 38.23 200.2 37.78" stroke="#1F252E" stroke-width="2" stroke-miterlimit="10" stroke-linecap="round" stroke-linejoin="round"/>
<path d="M201.67 37.31C202.05 37.17 202.51 37.47 202.62 37.83C202.74 38.19 202.62 38.56 202.5 38.91C201.61 41.57 200.59 44.2 199.46 46.79" stroke="#1F252E" stroke-width="2" stroke-miterlimit="10" stroke-linecap="round" stroke-linejoin="round"/>
<path d="M203.86 38.23C204.5 38.14 205.11 38.64 205.28 39.2C205.45 39.76 205.3 40.34 205.14 40.89C204.42 43.26 203.36 45.54 202 47.67" stroke="#1F252E" stroke-width="2" stroke-miterlimit="10" stroke-linecap="round" stroke-linejoin="round"/>
<path d="M206.07 40.4198C206.88 40.3998 207.55 41.1498 207.73 41.9498C207.9 42.7498 207.7 43.5698 207.48 44.3598C206.38 48.3898 204.77 52.5698 201.38 55.0198C197.32 57.9598 194.47 62.5798 191.19 66.4098C189.07 68.8898 186.9 71.3298 184.69 73.7398C182.93 75.6598 180.96 78.9898 178.25 79.5798C177.11 79.8298 175.94 79.5398 174.81 79.2498C172.67 78.7098 171.53 78.5998 169.39 78.0498" stroke="#1F252E" stroke-width="2" stroke-miterlimit="10" stroke-linecap="round" stroke-linejoin="round"/>
<path d="M245.67 217.93C245.66 217.84 245.65 217.75 245.64 217.65C245.49 219.18 245.33 220.71 245.18 222.24" stroke="#1F252E" stroke-width="2" stroke-miterlimit="10" stroke-linecap="round" stroke-linejoin="round"/>
<path d="M160.95 185.1C160.72 187.02 161.13 189.02 162.1 190.7C162.89 192.06 164.12 193.25 165.65 193.58C167.19 193.91 169 193.13 169.49 191.64" stroke="#1F252E" stroke-width="2" stroke-miterlimit="10" stroke-linecap="round" stroke-linejoin="round"/>
<path d="M73.65 110.36C75.13 112.16 75.75 114.64 75.28 116.92C74.87 118.93 73.67 120.89 74.15 122.88C74.31 123.55 74.66 124.18 74.74 124.87C74.82 125.56 74.48 126.38 73.8 126.5C73.05 126.63 72.46 125.88 72.13 125.2C71.37 123.62 70.95 121.88 70.91 120.12" stroke="#1F252E" stroke-width="2" stroke-miterlimit="10" stroke-linecap="round" stroke-linejoin="round"/>
<path d="M64.41 119.37C63.67 120.87 62.93 122.38 62.18 123.88C61.68 124.89 61.17 126.02 61.5 127.09C61.64 127.54 62.05 127.99 62.5 127.86C62.76 127.78 62.93 127.53 63.07 127.3C64.49 124.98 65.79 122.59 66.96 120.14" stroke="#1F252E" stroke-width="2" stroke-miterlimit="10" stroke-linecap="round" stroke-linejoin="round"/>
<path d="M63.79 129.49C64.05 129.84 64.56 129.98 64.96 129.82C65.35 129.66 65.6 129.29 65.82 128.93C67.36 126.47 68.89 124.01 70.43 121.55" stroke="#1F252E" stroke-width="2" stroke-miterlimit="10" stroke-linecap="round" stroke-linejoin="round"/>
<path d="M225 155C225 159.971 228.866 164.5 225 164.5C221.134 164.5 217.5 159.971 217.5 155C217.5 150.029 214 145 214 145C214 145 225 150.029 225 155Z" fill="url(#paint2_linear)" style="mix-blend-mode:multiply"/>
<path d="M84.99 79.7743C89.5002 77.0002 90.5002 76.8336 93.0002 78.5002C95.5002 80.1669 89.0002 83.0002 86.6131 87.0966C84.2259 91.193 77.6074 92.6777 77.6074 92.6777C77.6074 92.6777 80.1373 80.8499 84.99 79.7743Z" fill="url(#paint3_linear)" style="mix-blend-mode:multiply"/>
<defs>
<linearGradient id="paint0_linear" x1="160.098" y1="41.97" x2="160.098" y2="195.242" gradientUnits="userSpaceOnUse">
<stop stop-color="#FFE1C0"/>
<stop offset="1" stop-color="#FFE1C0" stop-opacity="0"/>
</linearGradient>
<linearGradient id="paint1_linear" x1="133.614" y1="57.1021" x2="127" y2="151.5" gradientUnits="userSpaceOnUse">
<stop stop-color="#FF8A00"/>
<stop offset="1" stop-color="#FF8A00" stop-opacity="0"/>
</linearGradient>
<linearGradient id="paint2_linear" x1="231" y1="147" x2="216.5" y2="161.5" gradientUnits="userSpaceOnUse">
<stop stop-color="#FC3C22"/>
<stop offset="1" stop-color="#FC3C22" stop-opacity="0"/>
</linearGradient>
<linearGradient id="paint3_linear" x1="75.8812" y1="75.6478" x2="93.1754" y2="86.6664" gradientUnits="userSpaceOnUse">
<stop stop-color="#FC3C22"/>
<stop offset="1" stop-color="#FC3C22" stop-opacity="0"/>
</linearGradient>
</defs>
</svg>
