<svg width="312" height="244" viewBox="0 0 312 244" fill="none" xmlns="http://www.w3.org/2000/svg">
<path d="M80.6584 190.817C99.3566 212.528 124.757 228.53 152.655 234.934C184.243 242.186 218.915 236.557 245.65 218.229C258.35 209.525 269.336 197.898 275.65 183.854C283.452 166.5 283.678 146.358 278.879 127.949C272.872 104.894 259.099 83.9408 240.319 69.2835C224.102 56.6286 204.727 48.8264 185.902 40.5281C170.298 33.646 154.802 26.2947 138.377 21.7126C121.951 17.1305 104.308 15.4168 87.8743 19.9718C81.0552 21.866 74.4437 24.8606 69.0858 29.4878C58.3702 38.7241 53.8783 53.2191 51.47 67.1729C44.1278 109.629 51.6504 157.137 80.6584 190.817Z" fill="url(#paint0_linear)"/>
<path d="M96.7499 80.4231C96.7499 80.4231 97.255 101.809 96.1005 104.199C94.9459 106.59 90.012 128.544 90.012 128.544L84.4828 142.011L85.2225 150.679L88.632 162.513L97.0205 174.284L108.476 183.259L120.445 187.931L132.063 189.771L135.535 188.662L136.122 184.233L135.752 161.918L136.437 144.464L134.633 142.66L113.617 136.653L112.327 135.174L110.117 111.939L108.828 80.7748L97.5797 80.405L96.7499 80.4231Z" fill="url(#paint1_linear)"/>
<path d="M125.614 79.5211L110.28 123.718V139.052L125.614 141.758L130.89 111.857L134.94 81.1446L125.614 79.5211Z" fill="url(#paint2_linear)"/>
<path d="M61.5725 121.914L60.6705 128.228L64.2784 135.444L69.6904 139.954L74.2003 140.856L78.7102 138.15L83.1841 134.624L77.6369 131.403L75.6886 132.982L72.9195 131.403L73.2983 125.522L74.3446 121.518L73.0728 116.575L69.4017 114.554L64.2784 117.405L61.5725 121.914Z" fill="white"/>
<path d="M64.4767 142.453C65.7665 145.745 65.7304 149.38 63.5657 153.159C61.6895 156.425 58.1447 158.851 54.3744 158.779C50.2433 158.707 46.5 155.802 42.3689 156.001C36.5601 156.28 35.2522 161.746 31.0941 164.227C26.1241 155.793 30.7513 143.508 37.1374 137.221C38.8512 135.534 40.8175 134.064 43.0544 133.216C47.5914 131.485 53.7701 130.862 57.7568 134.037C60.7514 136.409 63.2319 139.278 64.4767 142.453Z" fill="white"/>
<path d="M114.095 149.146C110.803 126.316 108.927 103.27 108.494 80.2066L96.4433 80.4952C96.4613 84.2926 96.4703 88.09 96.4884 91.8874C96.5064 95.2969 96.5154 98.7154 96.1727 102.107C95.6315 107.429 94.2154 112.624 92.8083 117.783C91.5545 122.375 90.3188 126.975 88.9929 131.53C87.9556 135.057 85.9261 137.988 84.7986 141.443C83.599 145.132 85.2676 151.166 86.2508 154.774C88.5689 163.253 93.3855 171.055 99.952 176.909C108.945 184.927 120.941 189.266 133.001 189.564C134.688 189.609 136.059 188.211 136.014 186.524L135.409 164.93C135.211 158.193 135.671 151.364 136.284 144.654C136.392 143.508 135.59 142.471 134.444 142.308C129.591 141.605 116.368 138.719 112.995 136.346" stroke="#1F252E" stroke-width="2" stroke-miterlimit="10" stroke-linecap="round" stroke-linejoin="round"/>
<path d="M194.291 162.901C192.225 175.177 190.412 187.48 189.573 199.9C189.438 201.948 189.33 204.031 189.889 206.007C190.999 209.949 194.579 212.853 195.599 216.822C196.456 220.168 195.346 223.677 194.21 226.933C192.947 230.559 191.648 234.176 190.295 237.775" stroke="#1F252E" stroke-width="2" stroke-miterlimit="10" stroke-linecap="round" stroke-linejoin="round"/>
<path d="M201.38 124.62C200.641 129.401 198.891 136.464 198.061 141.235" stroke="#1F252E" stroke-width="2" stroke-miterlimit="10" stroke-linecap="round" stroke-linejoin="round"/>
<path d="M186.119 40.2485C185.776 52.272 185.424 64.3045 185.082 76.328C184.91 82.3353 184.189 90.0653 186.822 95.6847C188.879 100.086 192.848 102.386 196.699 105.354" stroke="#1F252E" stroke-width="2" stroke-miterlimit="10" stroke-linecap="round" stroke-linejoin="round"/>
<path d="M89.0378 123.195C88.0817 121.878 86.7197 120.859 85.1773 120.327C84.564 120.12 83.8965 119.966 83.4365 119.506C82.8773 118.947 82.778 118.09 82.4714 117.36C82.1647 116.629 81.3709 115.925 80.6584 116.268C80.2615 116.458 80.0631 116.909 79.8015 117.269C78.6469 118.92 76.3559 118.902 74.2813 118.505" stroke="#1F252E" stroke-width="2" stroke-miterlimit="10" stroke-linecap="round" stroke-linejoin="round"/>
<path d="M82.2008 135.102C81.389 135.814 80.5772 136.536 79.7654 137.248C78.3674 138.484 76.8971 139.756 75.0931 140.216C72.3691 140.919 69.5098 139.603 67.309 137.844C64.3054 135.444 61.9963 132.089 61.2566 128.319C60.517 124.548 61.4641 120.399 64.0889 117.585C70.7816 110.423 75.1653 116.945 74.1731 124.548C73.9025 126.668 71.3048 131.07 74.0108 132.594C75.2014 133.262 76.9242 132.648 77.4203 131.376C80.3968 132.477 83.1118 134.263 85.3127 136.554" stroke="#1F252E" stroke-width="2" stroke-miterlimit="10" stroke-linecap="round" stroke-linejoin="round"/>
<path d="M62.0324 133C61.5904 134.795 61.6445 136.851 62.772 138.313C63.8995 139.783 66.3259 140.279 67.6338 138.971" stroke="#1F252E" stroke-width="2" stroke-miterlimit="10" stroke-linecap="round" stroke-linejoin="round"/>
<path d="M98.5627 80.3779C98.8243 78.6912 99.0679 77.0586 99.2934 75.5342" stroke="#1F252E" stroke-width="2" stroke-miterlimit="10" stroke-linecap="round" stroke-linejoin="round"/>
<path d="M97.0564 65.9101C96.2898 62.7531 95.7125 59.542 95.3517 56.3039C95.2434 55.3298 95.1532 54.3015 95.5591 53.3724" stroke="#1F252E" stroke-width="2" stroke-miterlimit="10" stroke-linecap="round" stroke-linejoin="round"/>
<path d="M96.5604 51.9923C96.8129 51.6135 97.4353 51.6135 97.778 51.8841C98.1298 52.1547 98.2832 52.5967 98.4094 53.0116C99.4197 56.1595 100.295 59.3526 101.034 62.5727" stroke="#1F252E" stroke-width="2" stroke-miterlimit="10" stroke-linecap="round" stroke-linejoin="round"/>
<path d="M99.1851 51.4873C99.7082 50.9912 100.601 51.0994 101.142 51.5234C101.684 51.9563 101.945 52.6148 102.171 53.2552C103.136 56.0062 103.731 58.8926 103.948 61.8241" stroke="#1F252E" stroke-width="2" stroke-miterlimit="10" stroke-linecap="round" stroke-linejoin="round"/>
<path d="M102.703 52.218C103.434 51.6858 104.552 51.9835 105.256 52.6419C105.959 53.3004 106.338 54.2294 106.681 55.1314C108.431 59.7315 109.829 64.8097 108.422 69.3287C107.438 72.5127 107.222 75.9854 107.132 79.4761" stroke="#1F252E" stroke-width="2" stroke-miterlimit="10" stroke-linecap="round" stroke-linejoin="round"/>
<path d="M100.078 73.8296C95.8478 72.8103 91.5633 69.942 90.3637 65.6846C90.1472 64.9269 90.1833 63.8896 90.9139 63.7002C91.2747 63.61 91.6625 63.7814 91.9963 63.9798C92.6367 64.3677 93.2139 64.8728 93.683 65.4681C94.0618 65.9462 94.4136 66.5054 94.9728 66.7129C95.5321 66.9203 96.2807 66.4152 96.0101 65.865" stroke="#1F252E" stroke-width="2" stroke-miterlimit="10" stroke-linecap="round" stroke-linejoin="round"/>
<path d="M64.4767 142.453C65.7665 145.745 65.7304 149.38 63.5657 153.159C61.6895 156.425 58.1447 158.851 54.3744 158.779C50.2433 158.707 46.5 155.802 42.3689 156.001C36.5601 156.28 35.2522 161.746 31.0941 164.227C26.1241 155.793 30.7513 143.508 37.1374 137.221C38.8512 135.534 40.8175 134.064 43.0544 133.216C47.5914 131.485 53.7701 130.862 57.7568 134.037C60.7514 136.409 63.2319 139.278 64.4767 142.453Z" stroke="#1F252E" stroke-width="2" stroke-miterlimit="10" stroke-linecap="round" stroke-linejoin="round"/>
<path d="M111.47 122.158C115.619 108.367 120.265 93.0329 125.415 79.5301L134.931 80.5493C132.865 100.637 129.844 120.643 125.884 140.486" stroke="#1F252E" stroke-width="2" stroke-miterlimit="10" stroke-linecap="round" stroke-linejoin="round"/>
<path d="M80.8388 100.754C80.8388 94.7286 80.8388 88.7124 80.8388 82.6871" stroke="#1F252E" stroke-width="2" stroke-miterlimit="10" stroke-linecap="round" stroke-linejoin="round"/>
<path d="M72.8652 94.4039C71.6114 86.5837 70.3486 78.7634 69.0948 70.9432" stroke="#1F252E" stroke-width="2" stroke-miterlimit="10" stroke-linecap="round" stroke-linejoin="round"/>
<path d="M118.019 43.0717C119.417 30.7145 120.815 18.3572 122.213 6" stroke="#1F252E" stroke-width="2" stroke-miterlimit="10" stroke-linecap="round" stroke-linejoin="round"/>
<path d="M129.79 36.7578C130.674 31.9411 131.558 27.1155 132.442 22.2989" stroke="#1F252E" stroke-width="2" stroke-miterlimit="10" stroke-linecap="round" stroke-linejoin="round"/>
<path d="M136.383 186.407C148.055 180.697 158.247 172.065 165.932 161.602C169.603 156.605 172.291 151.112 175.34 145.781C178.687 139.918 183.431 136.31 189.023 132.648C197.258 127.254 205.358 121.644 213.305 115.826C217.283 112.922 221.215 109.954 225.112 106.951C227.619 105.011 233.401 102.026 234.096 98.6432C234.438 96.9565 233.735 95.3961 232.851 93.998C232.355 93.2223 231.732 92.4826 230.876 92.1218C229.396 91.5085 227.737 92.203 226.293 92.8885C225.446 93.2944 224.598 93.6913 223.75 94.0972L195.13 105.796C173.374 114.825 154.468 129.401 135.851 143.824" stroke="#1F252E" stroke-width="2" stroke-miterlimit="10" stroke-linecap="round" stroke-linejoin="round"/>
<path d="M232.192 102.251C236.071 102.765 240.112 101.16 242.719 98.2734C243.864 97.0106 243.945 95.0984 242.962 93.7003L234.953 82.3353C232.689 79.1242 230.416 75.9041 228.152 72.693C226.465 70.2937 223.488 64.3767 220.223 68.6521C219.628 69.4368 219.267 70.3839 219.114 71.3581C218.834 73.144 218.618 74.9931 218.861 76.7971C219.276 79.8909 222.577 89.001 226.185 92.6089" stroke="#1F252E" stroke-width="2" stroke-miterlimit="10" stroke-linecap="round" stroke-linejoin="round"/>
<path d="M228.17 73.2162C226.744 76.1657 223.389 78.0599 220.133 77.7622" stroke="#1F252E" stroke-width="2" stroke-miterlimit="10" stroke-linecap="round" stroke-linejoin="round"/>
<path d="M225.761 80.5854C224.94 81.9654 223.407 82.9035 221.802 82.9937" stroke="#1F252E" stroke-width="2" stroke-miterlimit="10" stroke-linecap="round" stroke-linejoin="round"/>
<path d="M227.006 85.1675C225.915 85.8801 224.715 86.4213 223.452 86.755" stroke="#1F252E" stroke-width="2" stroke-miterlimit="10" stroke-linecap="round" stroke-linejoin="round"/>
<path d="M134.715 80.4681C134.823 79.2865 134.94 78.1049 135.066 76.9233C135.319 74.533 135.283 71.6918 136.564 69.5631C137.06 68.7513 137.736 68.0477 138.214 67.2179C138.71 66.352 138.981 65.3688 139.179 64.3857C139.955 60.5432 139.802 56.5113 138.737 52.741C138.584 52.2088 138.377 51.6315 137.899 51.3519C137.421 51.0723 136.627 51.388 136.681 51.9382" stroke="#1F252E" stroke-width="2" stroke-miterlimit="10" stroke-linecap="round" stroke-linejoin="round"/>
<path d="M129.203 74.1903C126.804 72.8103 125.081 70.3118 124.657 67.5788C124.278 65.1795 124.784 62.5006 123.431 60.4891C122.971 59.8036 122.321 59.2534 121.951 58.5228C121.582 57.7922 121.609 56.7369 122.321 56.3129C123.097 55.8529 124.071 56.4392 124.72 57.0616C126.227 58.4957 127.417 60.2636 128.193 62.1939" stroke="#1F252E" stroke-width="2" stroke-miterlimit="10" stroke-linecap="round" stroke-linejoin="round"/>
<path d="M135.725 60.3268C135.923 58.3514 136.122 56.3671 136.311 54.3917C136.446 53.0658 136.537 51.5955 135.725 50.5402C135.382 50.0982 134.733 49.7645 134.291 50.0982C134.029 50.2967 133.948 50.6394 133.885 50.9641C133.271 54.1301 132.82 57.3322 132.55 60.5433" stroke="#1F252E" stroke-width="2" stroke-miterlimit="10" stroke-linecap="round" stroke-linejoin="round"/>
<path d="M132.595 49.9359C132.162 49.6563 131.54 49.7104 131.152 50.0622C130.782 50.3959 130.665 50.9191 130.566 51.4061C129.88 54.7796 129.204 58.153 128.518 61.5265" stroke="#1F252E" stroke-width="2" stroke-miterlimit="10" stroke-linecap="round" stroke-linejoin="round"/>
<path d="M140.947 184.152C151.032 182.862 158.96 180.309 168.133 175.944C172.409 173.914 176.856 171.668 180.554 168.701C183.485 166.346 186.326 161.882 190.376 161.413C192.018 161.223 196.6 162.811 201.074 164.579C208.759 167.618 216.741 169.828 224.913 171.064C233.076 172.3 242.583 173.725 246.011 174.221C250.548 174.87 255.734 176.052 259.712 172.714C261.291 167.203 260.289 165.057 256.212 163.514C244.396 159.013 232.571 154.512 220.755 150.02C214.306 147.567 207.947 145.032 201.633 142.317C193.227 138.709 185.28 139.936 177.568 142.886" stroke="#1F252E" stroke-width="2" stroke-miterlimit="10" stroke-linecap="round" stroke-linejoin="round"/>
<path d="M243.043 160.159C242.159 162.775 241.934 165.607 242.403 168.331" stroke="#1F252E" stroke-width="2" stroke-miterlimit="10" stroke-linecap="round" stroke-linejoin="round"/>
<path d="M250.286 161.638C249.52 165.904 249.285 170.216 249.583 174.446" stroke="#1F252E" stroke-width="2" stroke-miterlimit="10" stroke-linecap="round" stroke-linejoin="round"/>
<path d="M254.67 176.034C256.573 180.697 261.444 183.187 266.486 184.116C268.525 184.494 270.509 183.187 270.942 181.157C273.251 170.333 272.304 160.141 272.096 148.613C272.006 143.661 268.209 144.004 264.917 146.277C261.462 148.649 261.137 151.671 261.128 155.351C261.11 158.517 259.829 161.602 257.62 163.767" stroke="#1F252E" stroke-width="2" stroke-miterlimit="10" stroke-linecap="round" stroke-linejoin="round"/>
<path d="M265.052 163.812C263.6 162.405 262.138 160.998 260.686 159.591" stroke="#1F252E" stroke-width="2" stroke-miterlimit="10" stroke-linecap="round" stroke-linejoin="round"/>
<path d="M262.427 148.505C264.042 151.355 267.253 153.232 270.536 153.241" stroke="#1F252E" stroke-width="2" stroke-miterlimit="10" stroke-linecap="round" stroke-linejoin="round"/>
<path d="M258.954 163.135C261.164 164.957 262.201 168.096 261.507 170.874C260.812 173.653 258.431 175.935 255.626 176.512" stroke="#1F252E" stroke-width="2" stroke-miterlimit="10" stroke-linecap="round" stroke-linejoin="round"/>
<path d="M261.769 155.378C261.678 155.333 261.588 155.288 261.498 155.243C262.815 156.253 264.132 157.263 265.449 158.274" stroke="#1F252E" stroke-width="2" stroke-miterlimit="10" stroke-linecap="round" stroke-linejoin="round"/>
<path d="M225.915 91.7972C228.855 90.4983 232.689 91.8152 234.213 94.6475C235.737 97.4797 234.709 101.403 232.003 103.144" stroke="#1F252E" stroke-width="2" stroke-miterlimit="10" stroke-linecap="round" stroke-linejoin="round"/>
<path d="M139.062 142.759C140.415 155.793 142.345 168.773 144.844 181.635" stroke="#1F252E" stroke-width="2" stroke-miterlimit="10" stroke-linecap="round" stroke-linejoin="round"/>
<path d="M139.982 140.333C146.422 124.909 150.382 108.448 151.663 91.779C151.943 88.135 152.033 84.2294 150.085 81.1356C149.417 80.0803 148.326 79.079 147.081 79.2414C145.548 79.4308 144.781 81.1897 144.483 82.705C143.987 85.1584 144.158 88.2072 146.296 89.515C148.704 90.9853 151.843 89.1633 153.575 86.9354C158.527 80.5944 158.031 71.7459 159.853 63.9076C161.504 56.809 165.274 50.2244 170.542 45.1913" stroke="#1F252E" stroke-width="2" stroke-miterlimit="10" stroke-linecap="round" stroke-linejoin="round"/>
<path d="M176.368 39.0398C178.109 37.3351 179.859 35.6303 181.6 33.9255" stroke="#1F252E" stroke-width="2" stroke-miterlimit="10" stroke-linecap="round" stroke-linejoin="round"/>
<defs>
<linearGradient id="paint0_linear" x1="165.461" y1="17.2961" x2="165.461" y2="238" gradientUnits="userSpaceOnUse">
<stop stop-color="#FFE1C0"/>
<stop offset="1" stop-color="#FFE1C0" stop-opacity="0"/>
</linearGradient>
<linearGradient id="paint1_linear" x1="106" y1="179.5" x2="104" y2="80" gradientUnits="userSpaceOnUse">
<stop stop-color="#FF8A00"/>
<stop offset="1" stop-color="#FF8A00" stop-opacity="0"/>
</linearGradient>
<linearGradient id="paint2_linear" x1="123" y1="136.5" x2="135" y2="79.9999" gradientUnits="userSpaceOnUse">
<stop stop-color="#FF8A00"/>
<stop offset="1" stop-color="#FF8A00" stop-opacity="0"/>
</linearGradient>
</defs>
</svg>
