<svg width="50" height="48" viewBox="0 0 50 48" fill="none" xmlns="http://www.w3.org/2000/svg">
<path fill-rule="evenodd" clip-rule="evenodd" d="M28.1255 5.94674C37.2477 5.90137 45.2059 11.4743 49.2858 19.7104C47.0498 8.47118 37.1321 0 25.2359 0C11.6929 0 0.714172 10.9788 0.714172 24.5217C0.714172 24.6961 0.715992 24.87 0.719613 25.0435H0.714172C0.714172 34.53 6.04943 42.6725 13.6603 46.1712V18.8533H32.2809C32.2809 21.7904 29.8999 24.1714 26.9627 24.1714H19.9436V31.7094H30.4922V37.0275H19.9436V47.8943C20.6202 47.9642 21.3059 48 21.9995 48C22.2967 48 22.5913 47.9948 22.8832 47.9846C23.1444 47.9948 23.4069 47.9999 23.6706 47.9999C34.6203 47.9999 43.4967 39.1235 43.4967 28.1739C43.4967 17.2242 34.6203 8.34778 23.6706 8.34778C20.5547 8.34778 17.6066 9.0666 14.9832 10.3475C18.7462 7.58842 23.2625 5.97092 28.1255 5.94674Z" fill="url(#paint0_linear)"/>
<defs>
<linearGradient id="paint0_linear" x1="-10.4573" y1="-6.72" x2="69.673" y2="6.70936" gradientUnits="userSpaceOnUse">
<stop stop-color="#FF8A00"/>
<stop offset="1" stop-color="#FC3C22"/>
</linearGradient>
</defs>
</svg>
