<svg width="312" height="180" viewBox="0 0 312 180" fill="none" xmlns="http://www.w3.org/2000/svg">
<rect x="124" y="37" width="63" height="106" rx="8" fill="url(#paint0_linear)"/>
<path d="M172.95 37L179 37C183.418 37 187 40.5817 187 45L187 135C187 139.418 183.418 143 179 143L132 143C127.582 143 124 139.418 124 135L124 45C124 40.5817 127.582 37 132 37L163.536 37" stroke="#1F252E" stroke-width="2" stroke-linecap="round"/>
<rect x="170" y="90" width="42" height="22" rx="11" fill="white"/>
<path d="M185.271 105.132C184.604 105.132 184.006 104.989 183.478 104.703C182.958 104.417 182.547 103.999 182.246 103.449C181.946 102.892 181.795 102.224 181.795 101.447C181.795 100.677 181.949 100.01 182.257 99.445C182.565 98.873 182.98 98.4367 183.5 98.136C184.028 97.8353 184.615 97.685 185.26 97.685C186.133 97.685 186.877 97.993 187.493 98.609L186.701 99.577C186.496 99.3863 186.283 99.2433 186.063 99.148C185.851 99.0453 185.601 98.994 185.315 98.994C184.721 98.994 184.245 99.2103 183.885 99.643C183.526 100.068 183.346 100.651 183.346 101.392C183.346 102.169 183.522 102.771 183.874 103.196C184.226 103.614 184.743 103.823 185.425 103.823C185.587 103.823 185.744 103.801 185.898 103.757C186.052 103.713 186.177 103.654 186.272 103.581V102.239H185.029V101.007H187.614V104.263C187.35 104.52 187.013 104.729 186.602 104.89C186.192 105.051 185.748 105.132 185.271 105.132ZM189.13 97.817H191.528C192.393 97.817 193.079 97.9967 193.585 98.356C194.098 98.708 194.355 99.2873 194.355 100.094C194.355 100.886 194.094 101.484 193.574 101.887C193.053 102.29 192.386 102.492 191.572 102.492H190.637V105H189.13V97.817ZM191.473 101.293C192.411 101.293 192.881 100.893 192.881 100.094C192.881 99.7127 192.76 99.4377 192.518 99.269C192.283 99.1003 191.92 99.016 191.429 99.016H190.637V101.293H191.473ZM197.688 105.132C197.204 105.132 196.731 105.044 196.269 104.868C195.807 104.685 195.4 104.424 195.048 104.087L195.917 103.053C196.181 103.288 196.471 103.475 196.786 103.614C197.109 103.753 197.421 103.823 197.721 103.823C198.073 103.823 198.341 103.757 198.524 103.625C198.715 103.486 198.81 103.295 198.81 103.053C198.81 102.899 198.766 102.771 198.678 102.668C198.598 102.565 198.491 102.481 198.359 102.415C198.235 102.349 198.029 102.257 197.743 102.14L196.797 101.733C196.372 101.557 196.024 101.311 195.752 100.996C195.481 100.673 195.345 100.27 195.345 99.786C195.345 99.3973 195.452 99.0453 195.664 98.73C195.884 98.4073 196.185 98.1543 196.566 97.971C196.948 97.7803 197.377 97.685 197.853 97.685C198.271 97.685 198.682 97.7693 199.085 97.938C199.489 98.0993 199.837 98.3267 200.13 98.62L199.371 99.577C199.122 99.379 198.876 99.2323 198.634 99.137C198.392 99.0417 198.132 98.994 197.853 98.994C197.553 98.994 197.314 99.0563 197.138 99.181C196.962 99.3057 196.874 99.478 196.874 99.698C196.874 99.852 196.918 99.9803 197.006 100.083C197.102 100.186 197.215 100.27 197.347 100.336C197.487 100.402 197.699 100.494 197.985 100.611L198.909 100.985C199.371 101.176 199.727 101.429 199.976 101.744C200.226 102.052 200.35 102.448 200.35 102.932C200.35 103.335 200.244 103.706 200.031 104.043C199.819 104.373 199.511 104.637 199.107 104.835C198.704 105.033 198.231 105.132 197.688 105.132Z" fill="#1F252E"/>
<rect x="170" y="90" width="42" height="22" rx="11" stroke="#1F252E" stroke-width="2"/>
<rect x="139" y="69" width="65" height="29" rx="14.5" fill="url(#paint1_linear)"/>
<path d="M163.94 88.314C163.4 88.314 162.872 88.2158 162.357 88.0195C161.842 87.815 161.388 87.5246 160.995 87.1483L161.964 85.9948C162.259 86.2566 162.582 86.4652 162.934 86.6206C163.294 86.7761 163.641 86.8538 163.977 86.8538C164.37 86.8538 164.668 86.7801 164.873 86.6329C165.085 86.4775 165.192 86.2648 165.192 85.9948C165.192 85.823 165.143 85.6799 165.044 85.5653C164.954 85.4508 164.836 85.3567 164.689 85.2831C164.549 85.2095 164.32 85.1072 164.001 84.9763L162.946 84.5223C162.472 84.326 162.083 84.0519 161.78 83.7002C161.478 83.3402 161.326 82.8903 161.326 82.3504C161.326 81.9168 161.445 81.5241 161.682 81.1724C161.928 80.8124 162.263 80.5302 162.688 80.3257C163.114 80.113 163.592 80.0066 164.124 80.0066C164.59 80.0066 165.049 80.1007 165.498 80.2889C165.948 80.4688 166.337 80.7224 166.664 81.0497L165.817 82.1172C165.539 81.8964 165.265 81.7327 164.995 81.6264C164.725 81.52 164.435 81.4669 164.124 81.4669C163.789 81.4669 163.523 81.5364 163.327 81.6755C163.13 81.8145 163.032 82.0068 163.032 82.2522C163.032 82.424 163.081 82.5672 163.179 82.6817C163.286 82.7962 163.412 82.8903 163.56 82.9639C163.715 83.0375 163.952 83.1398 164.271 83.2707L165.302 83.6879C165.817 83.9006 166.214 84.1828 166.492 84.5346C166.771 84.8782 166.91 85.3199 166.91 85.8598C166.91 86.3098 166.791 86.7229 166.554 87.0992C166.316 87.4673 165.973 87.7618 165.523 87.9827C165.073 88.2036 164.545 88.314 163.94 88.314ZM171.508 88.314C170.796 88.314 170.167 88.1463 169.618 87.8109C169.079 87.4755 168.657 86.9928 168.355 86.3629C168.052 85.7249 167.901 84.9804 167.901 84.1296C167.901 83.2707 168.052 82.5344 168.355 81.9209C168.657 81.2992 169.079 80.8247 169.618 80.4975C170.167 80.1703 170.796 80.0066 171.508 80.0066C172.22 80.0066 172.846 80.1703 173.386 80.4975C173.934 80.8247 174.355 81.2992 174.65 81.9209C174.952 82.5426 175.104 83.2789 175.104 84.1296C175.104 84.9804 174.952 85.7249 174.65 86.3629C174.355 86.9928 173.934 87.4755 173.386 87.8109C172.846 88.1463 172.22 88.314 171.508 88.314ZM171.508 86.8538C172.081 86.8538 172.535 86.6084 172.87 86.1175C173.214 85.6267 173.386 84.9641 173.386 84.1296C173.386 83.3034 173.214 82.6531 172.87 82.1786C172.535 81.7041 172.081 81.4669 171.508 81.4669C170.927 81.4669 170.469 81.7041 170.134 82.1786C169.798 82.6449 169.631 83.2952 169.631 84.1296C169.631 84.9641 169.798 85.6267 170.134 86.1175C170.477 86.6084 170.936 86.8538 171.508 86.8538ZM179.063 88.314C178.523 88.314 177.995 88.2158 177.48 88.0195C176.965 87.815 176.511 87.5246 176.118 87.1483L177.087 85.9948C177.382 86.2566 177.705 86.4652 178.057 86.6206C178.417 86.7761 178.764 86.8538 179.1 86.8538C179.492 86.8538 179.791 86.7801 179.995 86.6329C180.208 86.4775 180.315 86.2648 180.315 85.9948C180.315 85.823 180.265 85.6799 180.167 85.5653C180.077 85.4508 179.959 85.3567 179.811 85.2831C179.672 85.2095 179.443 85.1072 179.124 84.9763L178.069 84.5223C177.594 84.326 177.206 84.0519 176.903 83.7002C176.601 83.3402 176.449 82.8903 176.449 82.3504C176.449 81.9168 176.568 81.5241 176.805 81.1724C177.05 80.8124 177.386 80.5302 177.811 80.3257C178.237 80.113 178.715 80.0066 179.247 80.0066C179.713 80.0066 180.171 80.1007 180.621 80.2889C181.071 80.4688 181.46 80.7224 181.787 81.0497L180.94 82.1172C180.662 81.8964 180.388 81.7327 180.118 81.6264C179.848 81.52 179.558 81.4669 179.247 81.4669C178.912 81.4669 178.646 81.5364 178.449 81.6755C178.253 81.8145 178.155 82.0068 178.155 82.2522C178.155 82.424 178.204 82.5672 178.302 82.6817C178.408 82.7962 178.535 82.8903 178.682 82.9639C178.838 83.0375 179.075 83.1398 179.394 83.2707L180.425 83.6879C180.94 83.9006 181.337 84.1828 181.615 84.5346C181.893 84.8782 182.032 85.3199 182.032 85.8598C182.032 86.3098 181.914 86.7229 181.677 87.0992C181.439 87.4673 181.096 87.7618 180.646 87.9827C180.196 88.2036 179.668 88.314 179.063 88.314Z" fill="#1F252E"/>
<rect x="139" y="69" width="65" height="29" rx="14.5" stroke="#1F252E" stroke-width="2"/>
<circle cx="156" cy="132" r="4" stroke="#1F252E" stroke-width="2"/>
<rect x="150" y="42" width="11" height="2" rx="1" fill="#1F252E"/>
<path d="M212.5 76.5C212.5 68.4919 206.008 62 198 62" stroke="#1F252E" stroke-width="2" stroke-linecap="round"/>
<path d="M220.5 76.5C220.5 64.0736 210.426 54 198 54" stroke="#1F252E" stroke-width="2" stroke-linecap="round"/>
<rect x="72" y="107" width="71" height="22" rx="11" fill="white"/>
<path d="M84.0218 114.817H85.5288V120.735H88.4108V122H84.0218V114.817ZM92.1568 122.132C91.5188 122.132 90.9541 121.982 90.4628 121.681C89.9788 121.38 89.6011 120.948 89.3298 120.383C89.0584 119.811 88.9228 119.144 88.9228 118.381C88.9228 117.611 89.0584 116.951 89.3298 116.401C89.6011 115.844 89.9788 115.418 90.4628 115.125C90.9541 114.832 91.5188 114.685 92.1568 114.685C92.7948 114.685 93.3558 114.832 93.8398 115.125C94.3311 115.418 94.7088 115.844 94.9728 116.401C95.2441 116.958 95.3798 117.618 95.3798 118.381C95.3798 119.144 95.2441 119.811 94.9728 120.383C94.7088 120.948 94.3311 121.38 93.8398 121.681C93.3558 121.982 92.7948 122.132 92.1568 122.132ZM92.1568 120.823C92.6701 120.823 93.0771 120.603 93.3778 120.163C93.6858 119.723 93.8398 119.129 93.8398 118.381C93.8398 117.64 93.6858 117.057 93.3778 116.632C93.0771 116.207 92.6701 115.994 92.1568 115.994C91.6361 115.994 91.2254 116.207 90.9248 116.632C90.6241 117.05 90.4738 117.633 90.4738 118.381C90.4738 119.129 90.6241 119.723 90.9248 120.163C91.2328 120.603 91.6434 120.823 92.1568 120.823ZM99.7211 122.132C99.1051 122.132 98.5441 121.989 98.0381 121.703C97.5394 121.417 97.1434 120.999 96.8501 120.449C96.5567 119.892 96.4101 119.224 96.4101 118.447C96.4101 117.677 96.5604 117.01 96.8611 116.445C97.1617 115.873 97.5687 115.437 98.0821 115.136C98.5954 114.835 99.1564 114.685 99.7651 114.685C100.198 114.685 100.594 114.773 100.953 114.949C101.32 115.118 101.635 115.338 101.899 115.609L101.096 116.577C100.898 116.386 100.693 116.243 100.48 116.148C100.275 116.045 100.047 115.994 99.7981 115.994C99.4461 115.994 99.1307 116.093 98.8521 116.291C98.5734 116.482 98.3534 116.76 98.1921 117.127C98.0381 117.486 97.9611 117.908 97.9611 118.392C97.9611 119.147 98.1224 119.741 98.4451 120.174C98.7751 120.607 99.2187 120.823 99.7761 120.823C100.326 120.823 100.806 120.592 101.217 120.13L102.02 121.076C101.419 121.78 100.652 122.132 99.7211 122.132ZM106.498 120.207H104.243L103.759 122H102.219L104.507 114.817H106.3L108.577 122H106.982L106.498 120.207ZM106.19 119.041L105.992 118.304C105.904 117.981 105.772 117.475 105.596 116.786L105.387 115.972H105.343C105.123 116.918 104.929 117.695 104.76 118.304L104.562 119.041H106.19ZM110.04 116.082H108.038V114.817H113.56V116.082H111.547V122H110.04V116.082ZM114.702 114.817H116.209V122H114.702V114.817ZM120.828 122.132C120.19 122.132 119.625 121.982 119.134 121.681C118.65 121.38 118.272 120.948 118.001 120.383C117.729 119.811 117.594 119.144 117.594 118.381C117.594 117.611 117.729 116.951 118.001 116.401C118.272 115.844 118.65 115.418 119.134 115.125C119.625 114.832 120.19 114.685 120.828 114.685C121.466 114.685 122.027 114.832 122.511 115.125C123.002 115.418 123.38 115.844 123.644 116.401C123.915 116.958 124.051 117.618 124.051 118.381C124.051 119.144 123.915 119.811 123.644 120.383C123.38 120.948 123.002 121.38 122.511 121.681C122.027 121.982 121.466 122.132 120.828 122.132ZM120.828 120.823C121.341 120.823 121.748 120.603 122.049 120.163C122.357 119.723 122.511 119.129 122.511 118.381C122.511 117.64 122.357 117.057 122.049 116.632C121.748 116.207 121.341 115.994 120.828 115.994C120.307 115.994 119.896 116.207 119.596 116.632C119.295 117.05 119.145 117.633 119.145 118.381C119.145 119.129 119.295 119.723 119.596 120.163C119.904 120.603 120.314 120.823 120.828 120.823ZM125.433 114.817H126.984L128.975 118.546L129.69 120.108H129.734C129.727 119.983 129.708 119.789 129.679 119.525C129.591 118.674 129.547 118.014 129.547 117.545V114.817H130.977V122H129.437L127.446 118.271L126.72 116.709H126.676C126.683 116.797 126.702 116.962 126.731 117.204C126.768 117.541 126.801 117.897 126.83 118.271C126.859 118.638 126.874 118.964 126.874 119.25V122H125.433V114.817Z" fill="#1F252E"/>
<rect x="72" y="107" width="71" height="22" rx="11" stroke="#1F252E" stroke-width="2"/>
<defs>
<linearGradient id="paint0_linear" x1="155.5" y1="37" x2="155.5" y2="143" gradientUnits="userSpaceOnUse">
<stop stop-color="#FFE1C0"/>
<stop offset="1" stop-color="#FFE1C0" stop-opacity="0"/>
</linearGradient>
<linearGradient id="paint1_linear" x1="171.5" y1="68" x2="171.5" y2="99" gradientUnits="userSpaceOnUse">
<stop stop-color="#FF8A00"/>
<stop offset="1" stop-color="white"/>
</linearGradient>
</defs>
</svg>
