<svg width="312" height="180" viewBox="0 0 312 180" fill="none" xmlns="http://www.w3.org/2000/svg">
<rect x="124" y="37" width="63" height="106" rx="8" fill="url(#paint0_linear)"/>
<path d="M124 118C136.254 118 137.82 90.6946 150.074 90.6946C162.328 90.6946 160.297 69 172.551 69C184.806 69 184.571 99.6719 196.826 99.6719C209.08 99.6719 209.746 115.131 222 115.131" stroke="#FF8A00" stroke-width="2" stroke-linecap="round"/>
<path d="M172.95 37L179 37C183.418 37 187 40.5817 187 45L187 135C187 139.418 183.418 143 179 143L132 143C127.582 143 124 139.418 124 135L124 45C124 40.5817 127.582 37 132 37L163.536 37" stroke="#1F252E" stroke-width="2" stroke-linecap="round"/>
<path d="M144.859 119.147C144.303 119.147 143.816 118.992 143.399 118.681C142.99 118.362 142.671 117.896 142.442 117.282C142.221 116.669 142.11 115.928 142.11 115.061C142.11 113.769 142.356 112.779 142.847 112.092C143.337 111.396 144.008 111.049 144.859 111.049C145.702 111.049 146.368 111.396 146.859 112.092C147.35 112.779 147.595 113.769 147.595 115.061C147.595 115.928 147.481 116.669 147.252 117.282C147.031 117.896 146.716 118.362 146.307 118.681C145.898 118.992 145.415 119.147 144.859 119.147ZM144.859 117.847C145.219 117.847 145.501 117.638 145.706 117.221C145.91 116.795 146.013 116.075 146.013 115.061C146.013 114.063 145.91 113.364 145.706 112.963C145.501 112.554 145.219 112.349 144.859 112.349C144.491 112.349 144.205 112.55 144 112.95C143.804 113.351 143.706 114.055 143.706 115.061C143.706 116.075 143.808 116.795 144.012 117.221C144.217 117.638 144.499 117.847 144.859 117.847ZM148.558 117.638H150.276V112.926H148.828V111.883C149.229 111.809 149.576 111.719 149.871 111.613C150.165 111.507 150.448 111.368 150.718 111.196H151.957V117.638H153.442V119H148.558V117.638ZM155.718 115.098C155.424 115.098 155.179 114.996 154.982 114.791C154.786 114.587 154.688 114.329 154.688 114.018C154.688 113.707 154.786 113.449 154.982 113.245C155.179 113.04 155.424 112.938 155.718 112.938C156.013 112.938 156.258 113.04 156.455 113.245C156.651 113.449 156.749 113.707 156.749 114.018C156.749 114.329 156.651 114.587 156.455 114.791C156.258 114.996 156.013 115.098 155.718 115.098ZM155.718 119.147C155.424 119.147 155.179 119.045 154.982 118.84C154.786 118.636 154.688 118.378 154.688 118.067C154.688 117.757 154.786 117.499 154.982 117.294C155.179 117.09 155.424 116.988 155.718 116.988C156.013 116.988 156.258 117.09 156.455 117.294C156.651 117.499 156.749 117.757 156.749 118.067C156.749 118.378 156.651 118.636 156.455 118.84C156.258 119.045 156.013 119.147 155.718 119.147ZM160.479 119.147C159.342 119.147 158.447 118.779 157.792 118.043L158.565 116.975C159.121 117.515 159.706 117.785 160.32 117.785C160.721 117.785 161.04 117.699 161.277 117.527C161.522 117.348 161.645 117.098 161.645 116.779C161.645 116.386 161.486 116.092 161.167 115.895C160.856 115.699 160.295 115.601 159.485 115.601V114.398C160.173 114.398 160.659 114.304 160.946 114.116C161.24 113.92 161.387 113.646 161.387 113.294C161.387 113 161.297 112.775 161.118 112.619C160.938 112.456 160.688 112.374 160.369 112.374C160.091 112.374 159.833 112.431 159.596 112.546C159.367 112.66 159.126 112.836 158.872 113.073L158.025 112.042C158.794 111.38 159.6 111.049 160.443 111.049C161.244 111.049 161.882 111.237 162.357 111.613C162.831 111.981 163.069 112.501 163.069 113.171C163.069 113.973 162.631 114.554 161.756 114.914V114.963C162.23 115.102 162.61 115.335 162.897 115.662C163.183 115.981 163.326 116.386 163.326 116.877C163.326 117.343 163.199 117.748 162.946 118.092C162.692 118.436 162.349 118.697 161.915 118.877C161.482 119.057 161.003 119.147 160.479 119.147ZM166.939 119.147C165.851 119.147 164.943 118.783 164.215 118.055L164.976 116.988C165.54 117.519 166.117 117.785 166.706 117.785C167.123 117.785 167.455 117.671 167.7 117.442C167.954 117.213 168.08 116.889 168.08 116.472C168.08 116.071 167.962 115.756 167.725 115.527C167.487 115.298 167.176 115.184 166.792 115.184C166.563 115.184 166.367 115.212 166.203 115.27C166.048 115.327 165.847 115.437 165.602 115.601L164.841 115.11L165.062 111.196H169.406V112.607H166.51L166.375 114.214C166.694 114.075 167.001 114.006 167.295 114.006C168.007 114.006 168.596 114.214 169.062 114.632C169.528 115.041 169.762 115.642 169.762 116.435C169.762 116.992 169.631 117.474 169.369 117.883C169.115 118.292 168.772 118.607 168.338 118.828C167.913 119.041 167.446 119.147 166.939 119.147Z" fill="#1F252E"/>
<rect x="25" y="84" width="118.771" height="29" rx="14.5" fill="url(#paint1_linear)"/>
<path d="M43.0208 103.314C42.4809 103.314 41.9532 103.216 41.4378 103.019C40.9225 102.815 40.4684 102.525 40.0758 102.148L41.0452 100.995C41.3397 101.257 41.6628 101.465 42.0146 101.621C42.3745 101.776 42.7222 101.854 43.0576 101.854C43.4503 101.854 43.7488 101.78 43.9534 101.633C44.1661 101.477 44.2724 101.265 44.2724 100.995C44.2724 100.823 44.2233 100.68 44.1252 100.565C44.0352 100.451 43.9165 100.357 43.7693 100.283C43.6302 100.209 43.4012 100.107 43.0821 99.9763L42.0268 99.5223C41.5524 99.326 41.1638 99.0519 40.8611 98.7002C40.5584 98.3402 40.4071 97.8903 40.4071 97.3504C40.4071 96.9168 40.5257 96.5241 40.7629 96.1724C41.0084 95.8124 41.3438 95.5302 41.7692 95.3257C42.1945 95.113 42.6731 95.0066 43.2048 95.0066C43.6711 95.0066 44.1292 95.1007 44.5792 95.2889C45.0291 95.4688 45.4177 95.7224 45.7449 96.0497L44.8982 97.1172C44.6201 96.8964 44.346 96.7327 44.0761 96.6264C43.8061 96.52 43.5157 96.4669 43.2048 96.4669C42.8694 96.4669 42.6036 96.5364 42.4072 96.6755C42.2109 96.8145 42.1127 97.0068 42.1127 97.2522C42.1127 97.424 42.1618 97.5672 42.26 97.6817C42.3663 97.7962 42.4931 97.8903 42.6404 97.9639C42.7958 98.0375 43.033 98.1398 43.3521 98.2707L44.3828 98.6879C44.8982 98.9006 45.295 99.1828 45.5731 99.5346C45.8512 99.8782 45.9903 100.32 45.9903 100.86C45.9903 101.31 45.8717 101.723 45.6345 102.099C45.3972 102.467 45.0536 102.762 44.6037 102.983C44.1538 103.204 43.6261 103.314 43.0208 103.314ZM48.7172 96.565H46.4839V95.1539H52.6439V96.565H50.3983V103.167H48.7172V96.565ZM57.1681 101.167H54.6526L54.1126 103.167H52.3947L54.9471 95.1539H56.9472L59.4873 103.167H57.708L57.1681 101.167ZM56.8245 99.8659L56.6036 99.0437C56.5055 98.6838 56.3582 98.1193 56.1619 97.3504L55.9287 96.4423H55.8796C55.6342 97.4976 55.4174 98.3648 55.2293 99.0437L55.0084 99.8659H56.8245ZM64.7436 103.167L63.1484 100.197H62.0808V103.167H60.3997V95.1539H63.222C64.1546 95.1539 64.8949 95.3461 65.443 95.7306C65.9911 96.1069 66.2652 96.7327 66.2652 97.6081C66.2652 98.1807 66.1343 98.6634 65.8725 99.056C65.6107 99.4405 65.2467 99.7268 64.7804 99.915L66.6333 103.167H64.7436ZM62.0808 98.8597H63.0748C63.582 98.8597 63.9664 98.7574 64.2282 98.5529C64.49 98.3402 64.6209 98.0253 64.6209 97.6081C64.6209 97.2072 64.4941 96.9209 64.2405 96.7491C63.9869 96.5773 63.5983 96.4914 63.0748 96.4914H62.0808V98.8597ZM69.2086 96.565H66.9753V95.1539H73.1352V96.565H70.8897V103.167H69.2086V96.565ZM80.1655 103.314C79.4784 103.314 78.8526 103.154 78.2881 102.835C77.7318 102.516 77.2901 102.05 76.9629 101.437C76.6356 100.815 76.472 100.07 76.472 99.2033C76.472 98.3443 76.6397 97.5999 76.9751 96.97C77.3105 96.3319 77.7646 95.8452 78.3372 95.5097C78.9098 95.1743 79.5356 95.0066 80.2146 95.0066C80.6973 95.0066 81.139 95.1048 81.5399 95.3011C81.9489 95.4893 82.3007 95.7347 82.5952 96.0374L81.6994 97.1172C81.4785 96.9045 81.2495 96.745 81.0122 96.6387C80.7832 96.5241 80.5296 96.4669 80.2514 96.4669C79.8588 96.4669 79.507 96.5773 79.1962 96.7982C78.8853 97.0109 78.6399 97.3217 78.4599 97.7308C78.2881 98.1316 78.2022 98.602 78.2022 99.1419C78.2022 99.9845 78.3822 100.647 78.7421 101.13C79.1103 101.612 79.6052 101.854 80.2269 101.854C80.8404 101.854 81.3763 101.596 81.8344 101.081L82.7302 102.136C82.0593 102.921 81.2045 103.314 80.1655 103.314ZM83.9827 95.1539H85.6638V101.756H88.8788V103.167H83.9827V95.1539ZM90.2739 95.1539H91.955V103.167H90.2739V95.1539ZM93.8929 95.1539H95.7458L97.0833 98.8351C97.206 99.1869 97.3123 99.5223 97.4023 99.8414L97.5618 100.344H97.6109L97.8318 99.645C97.9627 99.2033 98.0486 98.9333 98.0895 98.8351L99.3902 95.1539H101.243V103.167H99.7092V99.9886C99.7092 99.5387 99.7624 98.8106 99.8688 97.8044L99.9178 97.3258H99.8688L99.2184 99.2033L98.0281 102.455H97.071L95.8807 99.2033L95.2427 97.3258H95.1936L95.2427 97.8044C95.349 98.8106 95.4022 99.5387 95.4022 99.9886V103.167H93.8929V95.1539ZM103.18 95.1539H105.867C107.814 95.1539 108.788 95.8165 108.788 97.1418C108.788 97.5181 108.689 97.8698 108.493 98.1971C108.297 98.5243 108.035 98.7492 107.708 98.872V98.921C108.158 99.0356 108.518 99.2524 108.788 99.5714C109.058 99.8823 109.193 100.295 109.193 100.811C109.193 101.588 108.906 102.177 108.334 102.578C107.761 102.97 107.012 103.167 106.088 103.167H103.18V95.1539ZM105.769 98.3934C106.235 98.3934 106.579 98.3075 106.8 98.1357C107.029 97.9557 107.143 97.7062 107.143 97.3872C107.143 97.06 107.033 96.8227 106.812 96.6755C106.591 96.5282 106.248 96.4546 105.781 96.4546H104.861V98.3934H105.769ZM105.941 101.866C107.012 101.866 107.548 101.477 107.548 100.7C107.548 100.332 107.413 100.066 107.143 99.9027C106.882 99.7309 106.481 99.645 105.941 99.645H104.861V101.866H105.941ZM110.574 95.1539H112.255V103.167H110.574V95.1539ZM114.192 95.1539H115.923L118.144 99.3137L118.941 101.056H118.99C118.982 100.917 118.962 100.7 118.929 100.406C118.831 99.4569 118.782 98.7206 118.782 98.1971V95.1539H120.377V103.167H118.659L116.438 99.0069L115.628 97.2645H115.579C115.587 97.3626 115.608 97.5467 115.64 97.8167C115.681 98.193 115.718 98.5897 115.751 99.0069C115.784 99.416 115.8 99.78 115.8 100.099V103.167H114.192V95.1539ZM125.802 103.314C125.058 103.314 124.391 103.154 123.802 102.835C123.221 102.516 122.763 102.05 122.428 101.437C122.092 100.815 121.924 100.07 121.924 99.2033C121.924 98.3443 122.096 97.5999 122.44 96.97C122.783 96.3319 123.246 95.8452 123.826 95.5097C124.415 95.1743 125.07 95.0066 125.79 95.0066C126.763 95.0066 127.594 95.3502 128.281 96.0374L127.397 97.1172C127.168 96.9045 126.931 96.745 126.686 96.6387C126.448 96.5241 126.17 96.4669 125.851 96.4669C125.188 96.4669 124.657 96.7082 124.256 97.1909C123.855 97.6653 123.655 98.3157 123.655 99.1419C123.655 100.009 123.851 100.68 124.244 101.154C124.636 101.621 125.213 101.854 125.974 101.854C126.154 101.854 126.33 101.829 126.501 101.78C126.673 101.731 126.812 101.666 126.919 101.584V100.087H125.532V98.7124H128.416V102.345C128.121 102.631 127.745 102.864 127.287 103.044C126.829 103.224 126.334 103.314 125.802 103.314Z" fill="#1F252E"/>
<rect x="25" y="84" width="118.771" height="29" rx="14.5" stroke="#1F252E" stroke-width="2"/>
<circle cx="156" cy="132" r="4" stroke="#1F252E" stroke-width="2"/>
<rect x="150" y="42" width="11" height="2" rx="1" fill="#1F252E"/>
<circle cx="172.5" cy="69.5" r="9.5" fill="url(#paint2_radial)"/>
<circle cx="172.5" cy="69.5" r="4.5" fill="#FF8A00" stroke="#1F252E" stroke-width="2"/>
<defs>
<linearGradient id="paint0_linear" x1="155.5" y1="37" x2="155.5" y2="143" gradientUnits="userSpaceOnUse">
<stop stop-color="#FFE1C0"/>
<stop offset="1" stop-color="#FFE1C0" stop-opacity="0"/>
</linearGradient>
<linearGradient id="paint1_linear" x1="84.3854" y1="83" x2="84.3854" y2="114" gradientUnits="userSpaceOnUse">
<stop stop-color="#FF8A00"/>
<stop offset="1" stop-color="white"/>
</linearGradient>
<radialGradient id="paint2_radial" cx="0" cy="0" r="1" gradientUnits="userSpaceOnUse" gradientTransform="translate(172.5 69.5) rotate(90) scale(9.5)">
<stop stop-color="#FF8A00"/>
<stop offset="1" stop-color="#FF8A00" stop-opacity="0"/>
</radialGradient>
</defs>
</svg>
