<svg width="312" height="180" viewBox="0 0 312 180" fill="none" xmlns="http://www.w3.org/2000/svg">
<rect x="112" y="46" width="87" height="87" rx="8" fill="url(#paint0_linear)"/>
<path d="M194.384 89.8385C199.65 94.7676 194.485 90.5496 200.5 94.5L191.911 117.463C189.967 116.67 187.825 115.905 185.811 116.505C184.143 116.998 182.877 118.356 181.386 119.27C177.286 121.785 171.943 120.756 167.567 118.77C163.192 116.784 159.142 113.927 154.47 112.826C151.826 112.205 149.19 112.169 146.567 112.526L146.504 112.305C145.528 112.212 144.539 112.148 143.712 111.662C142.164 110.755 141.719 108.619 142.164 106.862C142.609 105.104 143.719 103.618 144.694 102.104C147.006 98.5037 148.653 94.4604 149.515 90.26C147.967 90.46 146.419 90.6529 144.871 90.8529C144.369 90.9172 143.797 90.9601 143.408 90.6243C142.842 90.1314 143.061 89.2099 143.351 88.517C147.161 79.2946 154.915 70.9795 157.559 61.35L157.65 61C158.287 61.7572 158.916 62.5216 159.545 63.2788C163.058 67.5221 167.659 72.7154 172.487 75.4228C175.088 76.8801 178.325 77.4945 181.054 76.3015C183.492 75.2371 192.045 87.6526 194.384 89.8385Z" fill="url(#paint1_linear)"/>
<path d="M112 92.3976C128.047 83.3681 142.819 72.1184 155.671 59C156.934 60.4887 158.196 61.9844 159.459 63.4731C162.984 67.6443 167.602 72.7494 172.447 75.4108C175.057 76.8433 178.306 77.4472 181.044 76.2745C183.498 75.2282 192.074 87.4327 194.422 89.5815C196.272 91.2784 198.174 92.9184 200.124 94.5" stroke="#1F252E" stroke-width="2" stroke-miterlimit="10" stroke-linecap="round" stroke-linejoin="round"/>
<path d="M154 133H120C115.582 133 112 129.418 112 125V54C112 49.5817 115.582 46 120 46H191C195.418 46 199 49.5817 199 54V125C199 129.418 195.418 133 191 133H167" stroke="#1F252E" stroke-width="2" stroke-linecap="round"/>
<rect x="187" y="86" width="75" height="22" rx="11" fill="white"/>
<path d="M198.97 93.817H200.631L201.83 97.117C201.94 97.4323 202.035 97.733 202.116 98.019L202.259 98.47H202.303L202.501 97.843C202.618 97.447 202.695 97.205 202.732 97.117L203.898 93.817H205.559V101H204.184V98.151C204.184 97.7477 204.232 97.095 204.327 96.193L204.371 95.764H204.327L203.744 97.447L202.677 100.362H201.819L200.752 97.447L200.18 95.764H200.136L200.18 96.193C200.275 97.095 200.323 97.7477 200.323 98.151V101H198.97V93.817ZM210.177 101.132C209.539 101.132 208.975 100.982 208.483 100.681C207.999 100.38 207.622 99.9477 207.35 99.383C207.079 98.811 206.943 98.1437 206.943 97.381C206.943 96.611 207.079 95.951 207.35 95.401C207.622 94.8437 207.999 94.4183 208.483 94.125C208.975 93.8317 209.539 93.685 210.177 93.685C210.815 93.685 211.376 93.8317 211.86 94.125C212.352 94.4183 212.729 94.8437 212.993 95.401C213.265 95.9583 213.4 96.6183 213.4 97.381C213.4 98.1437 213.265 98.811 212.993 99.383C212.729 99.9477 212.352 100.38 211.86 100.681C211.376 100.982 210.815 101.132 210.177 101.132ZM210.177 99.823C210.691 99.823 211.098 99.603 211.398 99.163C211.706 98.723 211.86 98.129 211.86 97.381C211.86 96.6403 211.706 96.0573 211.398 95.632C211.098 95.2067 210.691 94.994 210.177 94.994C209.657 94.994 209.246 95.2067 208.945 95.632C208.645 96.05 208.494 96.633 208.494 97.381C208.494 98.129 208.645 98.723 208.945 99.163C209.253 99.603 209.664 99.823 210.177 99.823ZM217.566 101.132C216.649 101.132 215.949 100.857 215.465 100.307C214.988 99.757 214.75 98.899 214.75 97.733V93.817H216.257V97.876C216.257 98.5727 216.367 99.0713 216.587 99.372C216.807 99.6727 217.133 99.823 217.566 99.823C218.006 99.823 218.339 99.6727 218.567 99.372C218.794 99.0713 218.908 98.5727 218.908 97.876V93.817H220.36V97.733C220.36 98.899 220.121 99.757 219.645 100.307C219.175 100.857 218.482 101.132 217.566 101.132ZM222.066 93.817H223.617L225.608 97.546L226.323 99.108H226.367C226.359 98.9833 226.341 98.789 226.312 98.525C226.224 97.6743 226.18 97.0143 226.18 96.545V93.817H227.61V101H226.07L224.079 97.271L223.353 95.709H223.309C223.316 95.797 223.334 95.962 223.364 96.204C223.4 96.5413 223.433 96.897 223.463 97.271C223.492 97.6377 223.507 97.964 223.507 98.25V101H222.066V93.817ZM230.768 95.082H228.766V93.817H234.288V95.082H232.275V101H230.768V95.082ZM238.344 99.207H236.089L235.605 101H234.065L236.353 93.817H238.146L240.423 101H238.828L238.344 99.207ZM238.036 98.041L237.838 97.304C237.75 96.9813 237.618 96.4753 237.442 95.786L237.233 94.972H237.189C236.969 95.918 236.774 96.6953 236.606 97.304L236.408 98.041H238.036ZM241.241 93.817H242.748V101H241.241V93.817ZM244.485 93.817H246.036L248.027 97.546L248.742 99.108H248.786C248.778 98.9833 248.76 98.789 248.731 98.525C248.643 97.6743 248.599 97.0143 248.599 96.545V93.817H250.029V101H248.489L246.498 97.271L245.772 95.709H245.728C245.735 95.797 245.753 95.962 245.783 96.204C245.819 96.5413 245.852 96.897 245.882 97.271C245.911 97.6377 245.926 97.964 245.926 98.25V101H244.485V93.817Z" fill="#1F252E"/>
<rect x="187" y="86" width="75" height="22" rx="11" stroke="#1F252E" stroke-width="2"/>
<path d="M169 126C169 112.745 179.745 102 193 102C206.255 102 217 112.745 217 126C217 139.255 206.255 150 193 150C179.745 150 169 139.255 169 126Z" fill="url(#paint2_linear)"/>
<path d="M194 127V133H192V127H186V125H192V119H194V125H200V127H194Z" fill="#1F252E"/>
<path d="M193 148C180.85 148 171 138.15 171 126H167C167 140.359 178.641 152 193 152V148ZM215 126C215 138.15 205.15 148 193 148V152C207.359 152 219 140.359 219 126H215ZM193 104C205.15 104 215 113.85 215 126H219C219 111.641 207.359 100 193 100V104ZM193 100C178.641 100 167 111.641 167 126H171C171 113.85 180.85 104 193 104V100Z" fill="#1F252E"/>
<rect x="51" y="66" width="71" height="22" rx="11" fill="white"/>
<path d="M63.0218 73.817H64.5288V79.735H67.4108V81H63.0218V73.817ZM71.1568 81.132C70.5188 81.132 69.9541 80.9817 69.4628 80.681C68.9788 80.3803 68.6011 79.9477 68.3298 79.383C68.0584 78.811 67.9228 78.1437 67.9228 77.381C67.9228 76.611 68.0584 75.951 68.3298 75.401C68.6011 74.8437 68.9788 74.4183 69.4628 74.125C69.9541 73.8317 70.5188 73.685 71.1568 73.685C71.7948 73.685 72.3558 73.8317 72.8398 74.125C73.3311 74.4183 73.7088 74.8437 73.9728 75.401C74.2441 75.9583 74.3798 76.6183 74.3798 77.381C74.3798 78.1437 74.2441 78.811 73.9728 79.383C73.7088 79.9477 73.3311 80.3803 72.8398 80.681C72.3558 80.9817 71.7948 81.132 71.1568 81.132ZM71.1568 79.823C71.6701 79.823 72.0771 79.603 72.3778 79.163C72.6858 78.723 72.8398 78.129 72.8398 77.381C72.8398 76.6403 72.6858 76.0573 72.3778 75.632C72.0771 75.2067 71.6701 74.994 71.1568 74.994C70.6361 74.994 70.2254 75.2067 69.9248 75.632C69.6241 76.05 69.4738 76.633 69.4738 77.381C69.4738 78.129 69.6241 78.723 69.9248 79.163C70.2328 79.603 70.6434 79.823 71.1568 79.823ZM78.7211 81.132C78.1051 81.132 77.5441 80.989 77.0381 80.703C76.5394 80.417 76.1434 79.999 75.8501 79.449C75.5567 78.8917 75.4101 78.2243 75.4101 77.447C75.4101 76.677 75.5604 76.0097 75.8611 75.445C76.1617 74.873 76.5687 74.4367 77.0821 74.136C77.5954 73.8353 78.1564 73.685 78.7651 73.685C79.1977 73.685 79.5937 73.773 79.9531 73.949C80.3197 74.1177 80.6351 74.3377 80.8991 74.609L80.0961 75.577C79.8981 75.3863 79.6927 75.2433 79.4801 75.148C79.2747 75.0453 79.0474 74.994 78.7981 74.994C78.4461 74.994 78.1307 75.093 77.8521 75.291C77.5734 75.4817 77.3534 75.7603 77.1921 76.127C77.0381 76.4863 76.9611 76.908 76.9611 77.392C76.9611 78.1473 77.1224 78.7413 77.4451 79.174C77.7751 79.6067 78.2187 79.823 78.7761 79.823C79.3261 79.823 79.8064 79.592 80.2171 79.13L81.0201 80.076C80.4187 80.78 79.6524 81.132 78.7211 81.132ZM85.4979 79.207H83.2429L82.7589 81H81.2189L83.5069 73.817H85.2999L87.5769 81H85.9819L85.4979 79.207ZM85.1899 78.041L84.9919 77.304C84.9039 76.9813 84.7719 76.4753 84.5959 75.786L84.3869 74.972H84.3429C84.1229 75.918 83.9286 76.6953 83.7599 77.304L83.5619 78.041H85.1899ZM89.0404 75.082H87.0384V73.817H92.5604V75.082H90.5474V81H89.0404V75.082ZM93.7015 73.817H95.2085V81H93.7015V73.817ZM99.8277 81.132C99.1897 81.132 98.625 80.9817 98.1337 80.681C97.6497 80.3803 97.272 79.9477 97.0007 79.383C96.7293 78.811 96.5937 78.1437 96.5937 77.381C96.5937 76.611 96.7293 75.951 97.0007 75.401C97.272 74.8437 97.6497 74.4183 98.1337 74.125C98.625 73.8317 99.1897 73.685 99.8277 73.685C100.466 73.685 101.027 73.8317 101.511 74.125C102.002 74.4183 102.38 74.8437 102.644 75.401C102.915 75.9583 103.051 76.6183 103.051 77.381C103.051 78.1437 102.915 78.811 102.644 79.383C102.38 79.9477 102.002 80.3803 101.511 80.681C101.027 80.9817 100.466 81.132 99.8277 81.132ZM99.8277 79.823C100.341 79.823 100.748 79.603 101.049 79.163C101.357 78.723 101.511 78.129 101.511 77.381C101.511 76.6403 101.357 76.0573 101.049 75.632C100.748 75.2067 100.341 74.994 99.8277 74.994C99.307 74.994 98.8963 75.2067 98.5957 75.632C98.295 76.05 98.1447 76.633 98.1447 77.381C98.1447 78.129 98.295 78.723 98.5957 79.163C98.9037 79.603 99.3143 79.823 99.8277 79.823ZM104.433 73.817H105.984L107.975 77.546L108.69 79.108H108.734C108.727 78.9833 108.708 78.789 108.679 78.525C108.591 77.6743 108.547 77.0143 108.547 76.545V73.817H109.977V81H108.437L106.446 77.271L105.72 75.709H105.676C105.683 75.797 105.702 75.962 105.731 76.204C105.768 76.5413 105.801 76.897 105.83 77.271C105.859 77.6377 105.874 77.964 105.874 78.25V81H104.433V73.817Z" fill="#1F252E"/>
<rect x="51" y="66" width="71" height="22" rx="11" stroke="#1F252E" stroke-width="2"/>
<defs>
<linearGradient id="paint0_linear" x1="155.5" y1="46" x2="155.5" y2="133" gradientUnits="userSpaceOnUse">
<stop stop-color="#FFE1C0"/>
<stop offset="1" stop-color="#FFE1C0" stop-opacity="0"/>
</linearGradient>
<linearGradient id="paint1_linear" x1="171.25" y1="61" x2="171.25" y2="120.755" gradientUnits="userSpaceOnUse">
<stop stop-color="#FF8A00"/>
<stop offset="1" stop-color="#FF8A00" stop-opacity="0"/>
</linearGradient>
<linearGradient id="paint2_linear" x1="193" y1="102" x2="193" y2="150" gradientUnits="userSpaceOnUse">
<stop stop-color="#FF8A00"/>
<stop offset="1" stop-color="white"/>
</linearGradient>
</defs>
</svg>
