<svg width="50" height="64" viewBox="0 0 50 64" fill="none" xmlns="http://www.w3.org/2000/svg">
<path fill-rule="evenodd" clip-rule="evenodd" d="M25 16.6172L0.834778 27.1468C0.834778 40.8173 9.24512 60.0772 25 64C40.7549 60.0772 49.1652 40.8173 49.1652 27.1468L25 16.6172ZM34.4772 27.5153H19.7886V53.5758H24.7451V41.9519H33.0663V37.7275H24.7451V31.7398H30.2528C32.5859 31.7398 34.4772 29.8484 34.4772 27.5153Z" fill="url(#paint0_linear)"/>
<path fill-rule="evenodd" clip-rule="evenodd" d="M29.0417 12.9861L19.7891 0L2.57987 24.1534L24.1825 14.7405L25.0002 14.3842L25.818 14.7405L45.0229 23.1086C40.8622 18.8084 35.7061 12.6566 32.1844 7.3453L29.0417 12.9861ZM48.9238 27.0415L25.0002 16.6172L2.08783 26.6009H2.11263L25.0007 16.6278L48.8999 27.0415H48.9238Z" fill="url(#paint1_linear)"/>
<defs>
<linearGradient id="paint0_linear" x1="-10.2812" y1="9.98366" x2="69.4163" y2="23.4473" gradientUnits="userSpaceOnUse">
<stop stop-color="#FF8A00"/>
<stop offset="1" stop-color="#FC3C22"/>
</linearGradient>
<linearGradient id="paint1_linear" x1="-8.68444" y1="-3.78581" x2="117.576" y2="29.7484" gradientUnits="userSpaceOnUse">
<stop stop-color="#FF8A00"/>
<stop offset="1" stop-color="#FC3C22"/>
</linearGradient>
</defs>
</svg>
