<svg width="312" height="244" viewBox="0 0 312 244" fill="none" xmlns="http://www.w3.org/2000/svg">
<g clip-path="url(#clip0)">
<path d="M190.794 201.152C211.28 172.906 190.057 122.571 143.392 88.7265C96.7259 54.8816 42.2888 50.343 21.8029 78.5892C1.31705 106.835 22.5399 157.17 69.2056 191.015C115.871 224.86 170.308 229.398 190.794 201.152Z" fill="url(#paint0_linear)"/>
<path d="M243.852 96.833C247.439 77.7378 201.285 53.0428 140.764 41.6752C80.2437 30.3075 28.2745 36.572 24.6878 55.6672C21.1012 74.7624 67.2552 99.4573 127.776 110.825C188.296 122.193 240.266 115.928 243.852 96.833Z" fill="url(#paint1_angular)"/>
<path d="M292.84 143.87L297.84 112.87L292.84 111.87L278.84 141.87L188.39 119.58L184.84 112.87L160.84 101.87L143.32 97.53L139.84 84.18L136.84 81.87L132.87 82.83C132.87 82.83 124.84 93.87 123.84 92.87C122.84 91.87 111.4 90.37 111.4 90.37L103.84 90.87L100.84 91.87L97.8401 95.87L87.8401 93.87L79.8401 95.87L76.8401 98.87L65.8401 100.87L48.8401 106.87L37.1201 114.75C37.1201 114.75 15.3401 127.37 30.3401 135.37L92.0601 151.5C92.0601 151.5 93.3401 161.37 92.3401 163.37C91.3401 165.37 74.3401 159.37 74.3401 159.37C74.3401 159.37 69.6701 157.04 70.0101 160.2C70.0101 160.2 69.7101 161.84 72.5201 163.1C75.3401 164.36 104.63 172.38 104.63 172.38L118.94 175.28L152.98 175.67L169.83 173.86L170.83 171.86L169.83 169.86L151.83 170.86L150.27 169.67L150.83 153.86L177.83 141.86L205.59 143.75L277.83 149.86L287.83 169.86H293.83L292.83 148.86L297.83 146.86L292.84 143.87ZM144.67 129.45L136.74 151.69L134.84 155.87L143.7 158.46L143.84 170.87L133.07 171.62L109.47 168.72L97.8401 165.88L97.8601 152.09L108.84 151.88L114.3 140.29L119.72 125.59L122.04 112.05L146.84 116.88L144.67 129.45Z" fill="white"/>
<path d="M99.1201 93.36C103.44 89.15 110.4 89.9 116.32 91.08C134.66 94.74 152.73 99.73 170.35 106.01C176.9 108.34 183.87 111.24 187.44 117.21" stroke="#1F252E" stroke-width="2" stroke-miterlimit="10" stroke-linecap="round" stroke-linejoin="round"/>
<path d="M77.8299 98.53C81.6699 93.93 88.6599 94 94.6099 94.72C106.99 96.22 119.23 98.86 131.12 102.6C140.09 105.42 148.87 108.85 157.83 111.71C166.6 114.51 175.34 115.5 184.12 118C194.68 121 205.27 123.9 215.88 126.7C236.83 132.23 257.88 137.36 279.03 142.09L292.84 111.88L297.84 112.88L292.82 143.6C294.79 144.26 296.54 145.57 297.73 147.28C296.04 147.81 294.35 148.33 292.66 148.86L293.84 169.89H287.84L278.19 149.56C245.02 146.9 211.86 144.24 178.69 141.58C178.69 141.58 176.84 140.89 171.84 143.89C167.24 146.65 157.58 151.94 152.16 153.55C151.36 153.79 150.8 154.51 150.75 155.34L149.96 168.75C149.89 169.91 150.81 170.88 151.97 170.87C155.84 170.83 164.09 170.69 169.11 170.12C170.11 170.01 171.02 170.65 171.27 171.62V171.63C171.57 172.82 170.74 174 169.51 174.11C160.81 174.89 129.76 177.31 111.83 173.89C111.83 173.89 80.4799 167.79 70.5999 162.1C69.5899 161.52 69.2699 160.22 69.9199 159.25L69.9899 159.14C70.4799 158.4 71.4099 158.07 72.2599 158.34L90.3599 164.1C91.6199 164.5 92.9199 163.6 92.9699 162.28C93.2799 153.13 91.3299 147.49 90.5799 145.68C90.4099 145.27 90.0999 144.93 89.7099 144.72L71.3499 134.48C67.9299 132.58 64.4999 130.67 60.8599 129.23C52.3999 125.89 42.9099 125.23 34.0699 127.36C32.0399 127.85 29.9099 128.57 28.6199 130.21C27.3299 131.85 27.3599 134.67 29.1799 135.7" stroke="#1F252E" stroke-width="2" stroke-miterlimit="10" stroke-linecap="round" stroke-linejoin="round"/>
<path d="M141.99 155.24C127.09 153.5 112.03 152.49 97.8401 147.65C97.8401 147.65 97.8401 160.87 97.8401 165.87C97.8401 165.87 126.84 173.87 143.84 170.87C143.84 170.87 145.14 155.61 141.99 155.24Z" stroke="#1F252E" stroke-width="2" stroke-miterlimit="10" stroke-linecap="round" stroke-linejoin="round"/>
<path d="M92.84 157.87C91.95 157.76 91.05 157.64 90.16 157.52C69.31 154.65 48.11 148.35 30.39 136.81C26.21 134.09 23.84 130.43 26.29 125.39C27.26 123.4 28.87 121.79 30.51 120.3C37.38 114 45.31 108.8 53.93 105.23C60.77 102.39 72.4 97.64 79.81 99.97C84.7 101.51 86.11 106.14 84.69 110.89C83.13 116.09 78.76 119.94 77.11 124.94C70.04 121.46 62.34 119.27 54.49 118.5" stroke="#1F252E" stroke-width="2" stroke-miterlimit="10" stroke-linecap="round" stroke-linejoin="round"/>
<path d="M44.59 117.84C42.66 117.79 40.72 118.18 38.96 118.97" stroke="#1F252E" stroke-width="2" stroke-miterlimit="10" stroke-linecap="round" stroke-linejoin="round"/>
<path d="M206.32 144.29C209.35 149.95 212.15 155.74 214.72 161.62L224.84 163.87L220.69 145.75" stroke="#1F252E" stroke-width="2" stroke-miterlimit="10" stroke-linecap="round" stroke-linejoin="round"/>
<path d="M256.3 148.6C258.27 151.16 260.06 153.86 261.66 156.67L271.84 155.87L267.98 148.93" stroke="#1F252E" stroke-width="2" stroke-miterlimit="10" stroke-linecap="round" stroke-linejoin="round"/>
<path d="M256.75 135.67C258.43 133.31 260.11 130.95 261.79 128.58L271.83 128.87L266.83 137.87" stroke="#1F252E" stroke-width="2" stroke-miterlimit="10" stroke-linecap="round" stroke-linejoin="round"/>
<path d="M142.75 95.39C141.87 92.35 140.99 89.31 140.1 86.27C139.66 84.75 139.09 83.07 137.7 82.32C135.64 81.22 133.19 82.79 131.48 84.39C128.98 86.74 126.71 89.34 124.72 92.14" stroke="#1F252E" stroke-width="2" stroke-miterlimit="10" stroke-linecap="round" stroke-linejoin="round"/>
<path d="M99 158.42C113.49 160.48 128.08 161.77 142.71 162.27" stroke="#1F252E" stroke-width="2" stroke-miterlimit="10" stroke-linecap="round" stroke-linejoin="round"/>
<path d="M151.85 160.16C154.24 159.31 156.63 158.45 159.01 157.59C168.16 154.26 177.82 150.39 183.38 142.4" stroke="#1F252E" stroke-width="2" stroke-miterlimit="10" stroke-linecap="round" stroke-linejoin="round"/>
<path d="M153.15 124.69C158.35 125.84 163.54 126.99 168.74 128.14C167.62 126.99 166.5 125.84 165.38 124.7C183.57 127.34 201.69 130.49 219.7 134.15" stroke="#1F252E" stroke-width="2" stroke-miterlimit="10" stroke-linecap="round" stroke-linejoin="round"/>
<path d="M119.13 170.88C119.16 170.88 119.2 170.88 119.23 170.88C120.02 170.88 120.67 170.27 120.73 169.48C120.92 166.53 121.94 163.61 123.62 161.19C124.19 160.96 124.56 160.4 124.56 159.78C124.55 159.01 123.96 158.46 123.41 158.28C122.75 158.07 122.04 158.29 121.62 158.84C119.36 161.83 117.98 165.54 117.74 169.29C117.68 170.12 118.31 170.83 119.13 170.88Z" fill="#1F252E"/>
<path d="M127.26 178.5C124.63 178.35 122.01 178.13 119.38 177.87C119.39 177.83 119.41 177.8 119.42 177.77L119.81 175.66C119.96 174.84 119.42 174.06 118.6 173.91C117.78 173.76 117 174.3 116.85 175.12L116.46 177.23C116.44 177.35 116.44 177.47 116.44 177.59C96.6001 175.42 76.8901 170.5 58.3101 163.12C58.4501 162.9 58.5301 162.65 58.5401 162.38C58.6601 158.58 59.5901 154.81 61.2501 151.39C61.7801 151.5 62.3601 151.31 62.7201 150.85C63.2401 150.2 63.1301 149.26 62.4801 148.74L61.6201 148.06C61.2801 147.79 60.8301 147.67 60.4001 147.76C59.9701 147.84 59.6001 148.11 59.3801 148.5C57.0601 152.62 55.7501 157.28 55.5501 162C51.1001 160.16 46.7101 158.19 42.4001 156.07C41.6601 155.7 40.7601 156.01 40.3901 156.75C40.0201 157.49 40.3301 158.39 41.0701 158.76C67.6901 171.9 97.4201 179.76 127.05 181.5C127.08 181.5 127.11 181.5 127.14 181.5C127.93 181.5 128.59 180.88 128.64 180.09C128.72 179.26 128.09 178.55 127.26 178.5Z" fill="#1F252E"/>
<path d="M109.63 149.7C116.39 138.22 120.44 125.16 121.37 111.87L146.56 116.51C145.05 129.08 141.49 141.41 136.07 152.85" stroke="#1F252E" stroke-width="2" stroke-miterlimit="10" stroke-linecap="round" stroke-linejoin="round"/>
<path d="M69.84 133.5L90.3399 145.37L92.9699 152.29C92.9699 152.29 94.0799 159.2 89.2099 157.78C89.2099 157.78 53.9199 150.17 46.1299 144.77L31.3799 137.54C31.3799 137.54 24.5299 133.94 29.9299 129.15C29.9299 129.15 40.7399 123.74 51.0399 126.55L69.84 133.5Z" fill="#1F252E"/>
<path d="M97.3399 147.37C97.3399 147.37 95.7999 158.94 101.07 158.65L129.41 161.83L144.16 162.7C144.16 162.7 145.35 156.37 142.35 155.37L123.06 153.45L97.3399 147.37Z" fill="#1F252E"/>
<path d="M150.34 155.37L150.23 160.68L164.34 155.37L175.38 150.27L181.16 145.07C181.16 145.07 185.25 141.4 180.29 141.89H176.82L166.12 147.96L150.34 155.37Z" fill="#1F252E"/>
<path d="M104.22 113.53L98.01 111.35C95.35 110.42 92.43 111.82 91.5 114.48L89.32 120.69C88.39 123.35 89.79 126.27 92.45 127.2L98.66 129.38C101.32 130.31 104.24 128.91 105.17 126.25L107.35 120.04C108.29 117.38 106.88 114.47 104.22 113.53ZM102.09 123.44L99.36 122.48L98.4 125.21L95.28 124.12L96.24 121.39L93.51 120.43L94.6 117.31L97.33 118.27L98.29 115.54L101.41 116.63L100.45 119.36L103.18 120.32L102.09 123.44Z" fill="#FC3C22"/>
</g>
<defs>
<linearGradient id="paint0_linear" x1="21.8029" y1="78.5892" x2="190.794" y2="201.152" gradientUnits="userSpaceOnUse">
<stop stop-color="#FFE1C0"/>
<stop offset="1" stop-color="#FFE1C0" stop-opacity="0"/>
</linearGradient>
<radialGradient id="paint1_angular" cx="0" cy="0" r="1" gradientUnits="userSpaceOnUse" gradientTransform="translate(134.27 76.2501) rotate(38.5405) scale(87.8714 27.7248)">
<stop stop-color="#FF8A00"/>
<stop offset="1" stop-color="#FF8A00" stop-opacity="0"/>
</radialGradient>
<clipPath id="clip0">
<rect width="284.84" height="183.7" fill="white" transform="translate(14 36)"/>
</clipPath>
</defs>
</svg>
