<svg width="32" height="32" viewBox="0 0 32 32" fill="none" xmlns="http://www.w3.org/2000/svg">
<path d="M28.3548 27.9976H3.64409C3.16774 27.9976 2.72758 27.7434 2.48942 27.3309C2.25125 26.9184 2.25125 26.4101 2.48942 25.9976L14.8441 4.66423C15.0825 4.25238 15.5222 3.99878 15.9981 3.99878C16.4739 3.99878 16.9137 4.25238 17.1521 4.66423L29.5068 25.9976C29.7448 26.4099 29.7449 26.9179 29.5071 27.3303C29.2693 27.7428 28.8295 27.9971 28.3534 27.9976H28.3548ZM14.6668 21.3309V23.9976H15.9108H15.9974H16.0841H17.3308V21.3309H14.6668ZM14.6668 11.9976V18.6642H17.3334V11.9976H14.6668Z" fill="#FC3C22"/>
</svg>
